<svg xmlns="http://www.w3.org/2000/svg" fill="none" viewBox="0 0 1150 800" width="1150" height="800"><defs><clipPath id="assetClipPath___LZefGy"><path d="m0 0 h 741.044 a 0,0 0 0 1 0,0 v 523.464 a 0,0 0 0 1 -0,0 h -741.044 a 0,0 0 0 1 -0,-0 v -523.464 a 0,0 0 0 1 0,-0 z" id="path_HYZ4AG0q" fill="#ffffff" /></clipPath><clipPath id="assetClipPath_1F3I5ST6"><path d="m0 0 h 234.199 a 0,0 0 0 1 0,0 v 361.307 a 0,0 0 0 1 -0,0 h -234.199 a 0,0 0 0 1 -0,-0 v -361.307 a 0,0 0 0 1 0,-0 z" id="path_ShSC1xkJ" fill="#ffffff" /></clipPath><clipPath id="assetClipPath_vYJieTo4"><path d="m0 0 h 212.971 a 0,0 0 0 1 0,0 v 368.376 a 0,0 0 0 1 -0,0 h -212.971 a 0,0 0 0 1 -0,-0 v -368.376 a 0,0 0 0 1 0,-0 z" id="path_rFpT0yk3" fill="#ffffff" /></clipPath><clipPath id="assetClipPath_AflvG97q"><path d="m0 0 h 205.426 a 0,0 0 0 1 0,0 v 361.941 a 0,0 0 0 1 -0,0 h -205.426 a 0,0 0 0 1 -0,-0 v -361.941 a 0,0 0 0 1 0,-0 z" id="path_nl5IYRjg" fill="#ffffff" /></clipPath><clipPath id="assetClipPath_hv2Z2wMP"><path d="m0 0 h 269.788 a 0,0 0 0 1 0,0 v 281.743 a 0,0 0 0 1 -0,0 h -269.788 a 0,0 0 0 1 -0,-0 v -281.743 a 0,0 0 0 1 0,-0 z" id="path_wGV4RXqd" fill="#ffffff" /></clipPath><clipPath id="assetClipPath_fXWHT4Ry"><path d="m0 0 h 214.863 a 0,0 0 0 1 0,0 v 196.908 a 0,0 0 0 1 -0,0 h -214.863 a 0,0 0 0 1 -0,-0 v -196.908 a 0,0 0 0 1 0,-0 z" id="path_gy1qJgtO" fill="#ffffff" /></clipPath><clipPath id="assetClipPath_8V2MWgSs"><path d="m0 0 h 455.605 a 0,0 0 0 1 0,0 v 108.108 a 0,0 0 0 1 -0,0 h -455.605 a 0,0 0 0 1 -0,-0 v -108.108 a 0,0 0 0 1 0,-0 z" id="path_XNI28AS2" fill="#ffffff" /></clipPath></defs><g transform="translate(175 120) rotate(0 434 306.5) scale(1 1)" opacity="1"><g clip-path="url(#assetClipPath___LZefGy)" transform="scale(1.1713204614031016 1.1713204614031016)"><defs /><path d="m357.433 3.346c43.176-.044 200.997 3.892 324.872 2.464 51.021-.588 54.468 3.667 53.961 74.797-.552 77.191-5.825 234.44-3.864 311.608.243 9.597 1.822 94.78.578 103.553-1.072 5.783-1.074 12.079-9.064 17.44-11.548 5.934-175.641 5.539-208.881 5.488-173.062-.264-479.976 3.864-490.16-.849-14.51-6.715-13.528-11.614-18.475-83.903-2.82-41.206.134-93.582.013-176.154-.028-19.121-.087-36.581-.167-52.536-.783-156.968-3.935-170.55.93-185.155 4.578-9.618 7.069-10.233 15.913-13.565 8.397-2.851 33.745-2.908 334.344-3.188z" fill="rgba(255,255,255,1)" id="W80dJy5VYPxntuzoCiwG9" /><path d="m357.263 0c43.736-.045 203.6 3.942 329.079 2.495 51.682-.596 55.173 3.715 54.66 75.766-.56 78.191-5.9 237.476-3.914 315.644.247 9.722 1.845 96.008.585 104.894-1.086 5.858-3.209 12.206-11.303 17.636-11.698 6.011-175.794 5.64-209.464 5.589-175.303-.268-486.192 3.914-496.508-.86-14.697-6.801-13.702-11.764-18.713-84.99-2.856-41.739.136-94.794.013-178.435-.028-19.368-.088-37.054-.169-53.217-.794-159-3.624-170.513 1.305-185.307 4.637-9.742 8.606-12.163 17.565-15.538 8.505-2.888 32.373-3.394 336.864-3.677zm-348.349 24.62c-1.847 7.849-1.477 11.175-1.477 22.337.012 4.751.58 12.786 1.296 17.495 2.102 1.051.497-2.953 127.565-1.565 155.141 1.695 336.549 4.204 592.774-1.786.358-35.466 2.11-43.426-10.134-49.317-5.958-2.713-23.606-4.313-46.814-3.68-152.544 4.102-321.228-1.078-519.893-1.131-132.937-.046-137.208-2.118-143.317 17.647zm.871 47.38c-.092 17.047-.825 27.719-.554 44.35 6.679 396.057-6.342 395.433 28.459 398.884 63.13 6.261 133.758-1.63 188.348-1.65 103.661-.037 182.418 1.141 262.696-.437 211.864-4.149 222.875 3.799 235.821-3.257 9.375-6.463 4.935-.374 4.518-442.034-.223-.223-.446-.446-.676-.676-11.965 2.911-713.383 8.219-718.612 4.82z" fill="rgba(0,0,0,1)" id="O2m_e2tfhTZqJUAQrreh-" /><path d="m99.577 24.4c15.22-1.618 18.35 17.947 4.592 20.931-2.195.476-5.051-.482-7.119-1.359-2.522-1.069-4.831-4.376-5.116-7.199-.61-6.039.63-7.184 3.618-10.373 1.028-1.094 2.459-1.833 4.025-2z" fill="rgba(0,0,0,1)" id="llEvqdeuGqhK0nEBoyhzq" /><path d="m72.401 27.506c3.538 3.021 4.36 3.4 4.303 10.389-.042 5.168-5.766 9.742-13.145 8.02-2.835-.662-6.665-4.026-7.262-7.479-.798-4.608-.267-7.762 3.194-10.795 2.217-1.942 5.957-2.087 8.893-1.828 1.421.125 2.825.675 4.017 1.693z" fill="rgba(0,0,0,1)" id="wt4HerMauf37bbi2MUfps" /><path d="m42.29 38.317c-.264 6.605-7.952 10.883-15.03 8.108-12.116-7.637-5.162-21.137 4.157-19.41 2.797.518 6.696 1.879 9.421 4.517 1.531 1.484 1.547 4.406 1.452 6.785z" fill="rgba(0,0,0,1)" id="oyIKYqvouXKs76v1slxY-" /></g></g><g transform="translate(266 265) rotate(0 113.5 174) scale(1 1)" opacity="1"><g clip-path="url(#assetClipPath_1F3I5ST6)" transform="scale(0.9692611838650036 0.9692611838650036)"><defs /><path d="m111.047 361.307c-45.425-.305-73.763-10.602-96.221-36.071-17.539-19.889-20.122-50.575-4.492-72.756 22.36-31.73 41.717-36.788 82.048-21.63 15.828 5.948 43.66 20.453 60.539-9.399 14.2-25.114-21.075-36.458-35.433-36.458-11.891 0-20.244 5.856-49.247 5.907-21.574.038-40.897-6.263-36.147-32.144 6.524-35.545 5.18-71.833 11.601-107.003 4.644-25.44 24.999-40.949 50.173-46.231 156.914-32.926 157.228 92.138 92.808 92.138-24.686 0-30.553-14.645-52.077-13.781-16.976.681-26.516 25.224-5.541 33.3 36.905 14.209 59.183 7.09 87.557 41.761 12.835 15.684 18.639 38.05 17.429 59.605-5.07 90.301-66.398 141.558-122.996 142.761z" fill="rgba(0,0,0,1)" id="xZFekWxrPOupMVRF2b0Z8" /></g></g><g transform="translate(516 266) rotate(0 101.5 177) scale(1 1)" opacity="1"><g clip-path="url(#assetClipPath_vYJieTo4)" transform="scale(0.9531814190664456 0.9531814190664456)"><defs /><path d="m212.616 177.301c-.143 44.677 3.213 89.08-12.488 133.003-26.778 74.907-125.173 67.271-161.895 33.384-33.409-30.831-40.191-64.067-37.798-105.439 3.031-52.403 30.412-180.487 78.694-222.762 22.509-19.708 67.138-20.789 91.377-2.196 49.198 37.739 42.111 96.546 42.111 164.009zm-81.611-61.5c-4.129-15.276-15.877-11.619-19.398 1.49-8.368 31.147-7.435 53.022-14.335 112.664-2.22 19.189 3.77 37.402 17.869 38.297 3.512.223 7.09-3.123 10.351-9.113 12.627-23.195 7.755-135.044 5.513-143.337z" fill="rgba(0,0,0,1)" id="JTrYHF1lBj46ebh8lff" /></g></g><g transform="translate(767 265) rotate(0 99 174) scale(1 1)" opacity="1"><g clip-path="url(#assetClipPath_AflvG97q)" transform="scale(0.9638507297031536 0.9638507297031536)"><defs /><path d="m104.677 361.918c-27.614.738-104.677-16.025-104.677-74.858 0-16.181 4.359-32.92 11.787-44.984 20.979-34.069 44.078-66.626 67.381-99.075 8.426-11.733 15.157-41.428 1.834-47.009-5.567-2.332-10.334 1.064-14.276 4.069-22.779 17.362-35.274 19.74-47.685 8.42-12.248-11.171-14.011-38.275-5.182-56.65 24.815-51.644 80.779-63.998 122.423-40.172 64.627 36.974 48.991 123.634 5.616 171.707-3.433 3.805-6.323 8.293-8.625 12.885-5.328 10.63-12.374 21.339-5.245 33.779 6.545 11.421 18.067 10.121 28.842 10.295 28.796.466 48.289 18.01 48.552 46.795.46 50.348-51.709 75.442-100.746 74.798z" fill="rgba(0,0,0,1)" id="OoZp4Jhx70lhOdU5XMJGh" /></g></g><g transform="translate(11 430) rotate(0 159 166) scale(1 1)" opacity="1"><g clip-path="url(#assetClipPath_hv2Z2wMP)" transform="scale(1.1787032781294942 1.1787032781294942)"><defs /><path d="m209.706 4.413c-34.204-10.633-84.401-2.417-103.082 28.639-14.653 25.957-16.248 39.458-15.216 63.907 1.379 24.416 13.745 36.489 11.636 44.049-.315 1.13-2.539 6.067-7.159 8.181-30.595 14.004-3.313-3.151-88.034 92.373-8.199 9.747-9.361 16.308-6.308 22.359 6.259 12.405 16.128 15 19.622 16.219 4.862 1.695 8.247 2.424 14.301.278 5.889-2.811 7.114-3.607 13.311-10.616 4.134-4.546 8.149-9.161 12.016-13.934 8.179-10.23 10.233-11.214 23.511-26.837 24.611-28.968 36.482-35.351 38.473-46.753 1.582-9.064 3.123-9.995 6.483-13.272 1.431-1.396.539-2.039 9.37.064 12.096 2.881 25.02 8.088 47.249 6.71 29.773-3.636 52.843-13.101 69.573-39.285 34.146-55.865 2.651-115.986-45.746-132.082zm-18.979 150.156c-31.468 2.861-54.123-11.285-60.026-16.541-5.995-5.642-9.585-11.259-14.075-22.823-6.902-20.724-8.964-37.022.228-56.837 3.304-6.101 11.142-16.942 16.206-21.685 24.377-18.272 56.037-20.861 86.739-.913 6.788 4.395 10.526 7.368 18.261 21 5.201 9.599 7.659 15.409 8.402 24.057 1.904 45.815-22.506 70.722-55.735 73.742z" fill="rgba(0,0,0,1)" id="jqUr7Txg75-oznhvuPK5A" /><path d="m228.833 18.287c-16.891-9.958-30.6-12.592-48.321-12.719-14.126.162-24.568 1.811-37.938 7.82-7.182 3.434-18.276 9.123-26.235 16.148-14.131 12.473-18.897 34.496-19.711 53.327-.277 11.064-1.221 27.327 9.53 46.061 1.44 2.509 3.228 4.478 4.045 6.97 1.159 3.538.556 4.402 0 6.136-3.145 9.812-10.254 6.201 1.526 17.169 9.166 8.535 8.439 6.557 14.166 2.102 4.789-3.725 4.806-1.663 9.338-.256 9.037 2.805 17.634 6.499 30.194 7.574 25.102 1.21 34.745-.723 46.308-4.422 12.403-4.239 16.411-7.122 21.189-10.918 15.413-11.374 26.776-36.188 29.402-53.179 2.681-31.309-7.448-65.147-33.493-81.813zm-38.106 136.282c-31.468 2.861-54.123-11.285-60.026-16.541-5.995-5.642-9.585-11.259-14.075-22.823-6.902-20.724-8.964-37.022.228-56.837 3.304-6.101 11.142-16.942 16.206-21.685 24.377-18.272 56.037-20.861 86.739-.913 6.788 4.395 10.526 7.368 18.261 21 5.201 9.599 7.659 15.409 8.402 24.057 1.904 45.815-22.506 70.722-55.735 73.742z" fill="rgba(255,255,255,1)" id="Gr3YuioQqRCR_l-xLiV4-" /><path d="m248.349 80.49c-.763-8.89-3.29-14.863-8.637-24.731-7.952-14.014-11.794-17.07-18.772-21.588-10.493-6.818-16.819-9.807-33.552-13.36-19.134-3.683-40.026 2.612-55.617 14.299-5.207 4.876-13.264 16.02-16.661 22.292-9.45 20.37-7.33 37.124-.235 58.429 4.616 11.888 8.306 17.663 14.469 23.463 6.069 5.403 29.359 19.945 61.708 17.004 34.169-3.106 59.254-28.715 57.297-75.808zm-9.875 26.998c-2.287 6.338-6.868 15.268-11.232 20.674-7.601 8.258-13.618 12.521-20.382 15.828-17.572 7.511-42.056 7.163-57.736 1.954-15.058-6.551-27.359-20.106-32.253-38.242-2.329-10.265-2.354-28.859 2.698-43.495 5.994-14.613 10.121-19.177 21.317-27.059 4.05-2.732 8.218-5.148 12.656-7.194 5.521-2.329 15.867-5.003 21.922-5.28 10.074.484 15.719.286 24.066 2.867 19.811 7.49 34.51 19.869 40.424 40.598 3.616 13.789 4.303 21.669-1.48 39.349z" fill="rgba(0,0,0,1)" id="VjIGL8EHzI4TzRt8H03ma" /></g></g><g transform="translate(554 9) rotate(0 126.5 116) scale(1 1)" opacity="1"><g clip-path="url(#assetClipPath_fXWHT4Ry)" transform="scale(1.1774944964931142 1.1774944964931142)"><defs /><path d="m158.48.556c-12.793-1.454-15.919-.292-30.927 6.338-17.098 7.746-32.389 16.433-44.827 24.786-5.075 3.408-43.162 32.403-45.856 34.764-6.356 5.571-14.96 13.636-26.875 25.587-2.771 2.779-9.176 10.027-9.751 14.694-2.866 23.272 19.644 29.638 56.274 45.181 43.411 18.414 75.092 30.917 98.155 37.983 54.5 16.697 60.864 3.025 60.138-34.793-.694-36.173-15.107-148.48-56.331-154.54z" fill="rgba(0,0,0,1)" id="o9GOb_HNyTthiW7b1XlYc" /><path d="m203.507 189.979c-1.171.374-2.308.737-3.445 1.099-19.617 2.488-105.918-33.114-123.938-40.967-36.879-16.121-52.587-21.396-61.745-27.812-4.128-2.892-7.741-6.371-9.173-11.203-1.141-3.849 4.526-10.358 6.999-13.115 15.782-17.591 52.446-43.673 64.96-52.634 16.071-11.53 58.609-39.85 78.31-38.095 4.776.591 5.483 1.241 8.97 3.27 5.38 4.55 8.027 8.211 11.32 14.568 21.522 54.336 28.188 86.65 32.578 138.008 1.952 23.852.804 23.138-4.836 26.881z" fill="rgba(255,255,255,1)" id="N2DedAaC7lwIp26Bavx67" /><path d="m151.522 28.051c11.323 4.478 14.613 13.844 11.251 27.002-4.85 12.872-19.292 34.691-33.008 47.672-.992.939-4.884 5.676-9.643 3.097-2.274-1.233-2.197-4.507-2.272-8.26-1.117-55.654 9.225-64.032 12.535-66.718 6.517-5.291 17.225-4.34 21.137-2.793z" fill="rgba(0,0,0,1)" id="Crw5JPUNiKuBLlk6e4ycL" /><path d="m126.922 136.501c-3.317 4.568-8.803 6.884-14.779 5.67-6.426-1.305-14.253-6.684-13.593-15.667.349-4.753 2.027-7.67 5.002-10.18 4.556-3.843 11.117-3.414 15.116-1.465 10.699 5.214 12.404 15.927 8.254 21.642z" fill="rgba(0,0,0,1)" id="RU13DLX_8FYlpIgSklT38" /></g></g><g transform="translate(594 655) rotate(0 267.5 64.5) scale(1 1)" opacity="1"><g clip-path="url(#assetClipPath_8V2MWgSs)" transform="scale(1.1742627934285181 1.1742627934285181)"><defs /><path d="m451.75 11.624c-9.133-13.997-.113-13.082-280.01-8.944-64.809.992-136.213-.362-154.062 2.215-20.362 5.237-17.482 10.4-17.597 74.883-.114 9.784-.164 12.506 4.224 20.03 9.068 9.401.854 7.475 207.424 7.958 214.873.557 223.289 1.17 232.723-4.615 6.082-5.206 8.656-8.492 9.892-21.109 1.057-10.772 3.16-58.185-2.594-70.418z" fill="rgba(0,0,0,1)" id="LFMkPAsfKvIDxVp4lJO2k" /><path d="m447.105 81.387c-.217 4.365-.056 5.441-5.121 12.807-6.452 8.546-8.788 6.714-85.38 6.677-10.099.012-174.337-2.896-261.942-2.976-74.679-.033-76.87 4.122-84.572-1.724-4.589-6.323-4.754-6.813-3.056-48.364 1.283-30.43.775-26.277 2.141-30.375.448-.623.882-1.227 1.316-1.831 7.305-5.697-.005-7.439 309.363-7.497 114.128.054 114.923-1.776 124.674 6.753 1.153 2.162 1.929 3.186 2.925 8.351.01.093.499 41.425-.348 58.179z" fill="rgba(255,255,255,1)" id="mcLFbCdj5uP0uN3RGqkX8" /><path d="m130.424 35.384c3.365 5.189 5.447 12.12 5.623 16.446.4 9.84-.143 11.831-1.861 16.897-1.305 3.848-3.031 7.324-7.323 11.375-6.315 4.963-14.407 5.257-17.688 5.254-.601-.001-1.09-.479-1.103-1.08-.404-18.135-.631-37.668-1.05-56.318-.01-.435.283-.821.707-.919 3.159-.73 15.044-1.822 22.695 8.345zm-17.566-2.999c-1.179 3.633.547 7.094 1.285 46.271 3.433-.285 6.193-.294 9.961-4.231.86-1.003.86-1.003 1.607-2.196 1.567-3.043 3.035-6.818 3.427-10.282 1.089-9.615-.235-21.262-7.283-26.991-4.253-2.63-5.728-2.633-8.997-2.571z" fill="rgba(0,0,0,1)" id="KbINJj0y8quUQMvIwIE8m" /><path d="m85.814 27.953c5.401-.152 5.094 3.223 6.3 10.036 1.834 9.96 6.56 33.559 6.5 43.904-.018 3.008-6.208 3.281-6.559.425-.481-3.913-.967-7.618-1.601-11.928-9.897-.369-9.638-.332-11.996-.857-2.798 14.708-2.574 14.82-6.421 14.593-3.801-.224-1.196-8.637 2.565-24.543 1.424-5.987 3.029-11.898 4.873-17.769 1.811-5.803 2.906-13.764 6.339-13.861zm-.501 16.302c-5.853 20.387-5.141 17.453-5.141 20.565 3.11.141 6.221.283 9.426.428.918-2.757-2.456-19.481-4.285-20.993z" fill="rgba(0,0,0,1)" id="O25z31ijjIZp8SRvsIVR9" /><path d="m53.523 27.571c9.733 1.31 14.312 9.015 10.823 18.073-1.382 3.588-4.115 5.925-7.722 7.873 5.207 3.007 7.612 4.592 9.675 11.064 2.225 11.571-5.272 21.14-17.53 21.529-2.779.088-5.599.104-7.063.077-.45-.008-.805-.377-.798-.826.272-18.171.429-37.212.709-55.916.007-.466.31-.876.751-1.024 1.844-.62 1.951-.671 3.011-.802 2.721-.338 5.424-.414 8.144-.048zm-6.324 5.809c-.084 6.148.175 12.281.428 18.423 2.431 1.216 7.508-2.6 9.401-4.55 2.074-2.138 3.224-4.051 2.167-7.874-.928-3.357-4.682-5.377-8.14-5.998-1.344-.242-2.545-.115-3.856-.001zm0 24.421v21.85c.543.586 4.58.704 6.534-.081 5.689-2.286 7.852-8.883 6.44-13.002-1.675-4.889-2.749-5.377-4.678-6.48-2.559-1.463-3.622-1.82-8.296-2.287z" fill="rgba(0,0,0,1)" id="C0DXhvNiO41sM3XeT0b3n" /><path d="m296.637 26.281c2.149.465 3.072 1.23 2.506 3.302-.654 2.391-3.755 2.316-18.558 2.202.596 5.78.469 10.334.428 23.136 12.021-.266 13.378-.415 15.263.928.916.653 1.036 1.939.362 2.782-.331.414-.315.395-.779.773-1.737 1.418-12.131 1.425-14.846 1.515l.428 18.423c10.562.668 20.083-1.91 19.595 2.188-.281 2.356-3.823 2.925-6.181 3.545-4.034.753-13.147.49-16.968-.046-3.844-.539-2.031-8.509-3.114-30.644-.113-2.566-.555-19.648-.276-24.274.188-3.115 4.232-3.21 6.276-3.517 4.869-.643 14.815-.539 15.864-.313z" fill="rgba(0,0,0,1)" id="EcnPgEkAE-xCtQ6TRYobc" /><path d="m194.75 36.239c-2.828.808-4.514-4.282-10.564-3.168-2.056.963-3.835 2.637-5.076 4.925-3.982 8.654-5.476 19.223-2.506 28.885.894 2.672 1.976 5.259 3.298 7.748 1.998 3.346 4.248 5.762 8.14 5.57.676-.199.676-.199 1.365-.402.398-.291.796-.583 1.205-.883 2.702-3.706 3.275-10.479 2.999-14.995-.272-.437-.555-.868-.857-1.285-8.33-.198-10.408-.062-12.812-2.095-.554-.468-.889-1.141-.928-1.859-.295-5.381 5.692-2.917 10.569-2.796 8.122.253 7.711-.026 9.598 1.18l.428.857c.117 2.024.056 3.39.096 7.008.015 3.032-.218 5.909-.716 8.905-.793 4.1-1.482 6.482-4.093 9.365-3.431 2.959-5.072 3.21-7.337 3.481-4.03.11-7.031-.83-11.204-5.186-3.897-4.568-6.318-12.411-7.295-17.864-.685-4.606-.736-11.653.166-16.597.912-4.204 2.65-8.877 4.989-12.554 1.299-1.735 3.788-4.514 5.687-6.12 5.631-3.731 11.292-2.274 16.527 1.737 2.024 1.551.395 5.551-1.679 6.143z" fill="rgba(0,0,0,1)" id="VoE9uPFWlsfr9kDhxxFP" /><path d="m264.882 27.453c2.301.072 3.072 3.124 1.102 4.287-2.91 1.718-3.761 1.515-11.963 2.189.31 26.128.662 38.892.512 45.18-.113 4.74-.987 6.829-3.394 6.712-2.396-.117-2.976-1.706-3.128-4.476-.288-5.259.085-17.561.441-46.559-10.509-.362-13.203.394-14.287-3.045-.426-1.352.325-2.804 1.682-3.211 1.971-.591 10.165-.147 19.467-.935 2.68-.195 9.101-.157 9.568-.142z" fill="rgba(0,0,0,1)" id="sKaqKhi9K8x5tKOD_fS_F" /><path d="m374.446 27.608c.915.16 1.74.684 2.22 1.479.596.986.89 2.534 2.03 7.841 5.319 24.614 7.84 33.789 8.99 38.041.764 2.824 2.099 7.207-1.278 8.23-2.018.611-3.118-2.187-3.945-3.806-1.334-2.612-1.406-3.353-2.91-8.619-4.807.141-9.615.283-14.567.428-3.121 10.194-3.863 13.83-7.283 12.853-3.132-.895-2.374-2.903 4.043-29.039 5.019-20.441 6.138-24.613 8.464-26.372 1.195-.904 2.694-1.287 4.174-1.046.021.003.042.006.062.01zm-2.176 17.031c-4.845 14.771-5.57 17.347-5.57 20.993 3.817-.141 7.635-.282 11.568-.428-2.069-7.729-3.944-13.681-5.141-20.565-.352-2.022-.534-.986-.857-0z" fill="rgba(0,0,0,1)" id="rNpO7pBLm-53UjRKHJ3oD" /><path d="m391.549 27.073c1.777-.02 2.777.62 3.832 3.165 1.242 2.997 3.259 9.644 9.878 25.54 1.132-2.812 1.94-5.682 2.724-8.605 3.144-11.665 3.858-13.226 5.887-17.783 1.376-3.092 4.593-3.329 5.662-1.192.702 1.404-.147 1.509-4.268 17.115-6.682 25.199-7.749 31.358-8.506 34.094-1.143 4.126-2.322 4.087-4.46 3.832-3.726-.444-3.037-2.33-2.6-4.718.623-3.403 1.672-6.34 2.28-9.024 1.375-6.07-.22-5.611-2.036-9.418-2.885-7.015-4.457-10.791-7.031-17.822-1.557-4.229-2.634-6.612-3.409-8.325-1.77-3.905-.458-6.831 2.047-6.859z" fill="rgba(0,0,0,1)" id="S1NUId82A7BO88ZkeSOIf" /><path d="m221.312 28.984c.561.393 1.026.99 1.269 1.713 2.612 7.783 10.016 47.048 10.116 49.879-.025 1.777.268 3.99-1.818 3.944-.755-.017-3.156.298-4.294-2.752-1.014-2.718-1.842-6.123-2.07-9.664-4.206.56-7.004.478-11.996.428-1.32 9.322-1.497 10.083-2.838 11.206-2.291 1.918-5.52-.454-5.099-3.035.927-5.695 7.063-42.332 9.248-47.578 1.123-2.695 1.489-3.323 3.978-4.433.785-.351 2.669-.293 3.504.292zm-7.936 37.979h9.426c-.21-4.027-.803-7.8-1.695-11.73-1.362-5.999-1.635-7.706-2.82-10.436-.309 0-2.962 12.418-4.911 22.166z" fill="rgba(0,0,0,1)" id="v9DFRycFYf-PQa_IKCIK" /><path d="m328.89 29.038c3.012.521 1.21 5.047 5.918 26.232 2.175 9.788 3.737 13.602 4.703 16.463.305-3.652.998-7.003 1.59-10.732 3.515-22.347 4.717-31.356 8.863-31.356 1.947 0 2.992 1.221 3.103 2.555.282 3.397-.411 2.12-6.658 36.74-1.852 10.332-1.761 15.909-5.694 15.638-2.769-.191-3.443-.679-4.877-2.553-3.209-4.191-5.665-17.462-8.981-29.673-.46 2.159-.914 4.319-1.366 6.48-4.452 21.385-3.582 25.559-8.693 25.907-3.787.258-5.745.015-8.557-25.773-.906-8.302-2.478-19.222-1.943-25.247.253-2.853 1.019-4.103 2.472-4.47 1.382-.35 2.58.818 2.779 1.726 1.205 5.492 4.187 35.308 4.596 39.372 1.783-6.747 6.739-35.678 8.709-39.185 1.035-1.845 2.179-2.446 4.036-2.124z" fill="#000000" id="xC1G97zsNFQfDNBaa5jXd" /></g></g></svg>