<svg version="1.1" xmlns="http://www.w3.org/2000/svg" viewBox="0 0 2048 1142" width="1938" height="1080.529" preserveAspectRatio="none" display="block"><defs><linearGradient id="e" gradientUnits="userSpaceOnUse" x1="539.334" y1="271.636" x2="540.709" y2="303.362"><stop class="stop0" offset="0" stop-opacity="1" stop-color="#20282a" data-c-stop-color="2a202a" data-o-stop-color="1"/><stop class="stop1" offset="1" stop-opacity="1" stop-color="rgb(29,22,67)" data-c-stop-color="1d1643" data-o-stop-color="1"/></linearGradient><linearGradient id="d" gradientUnits="userSpaceOnUse" x1="543.088" y1="268.268" x2="592.474" y2="297.473"><stop class="stop0" offset="0" stop-opacity="1" stop-color="rgb(51,66,105)" data-c-stop-color="334269" data-o-stop-color="1"/><stop class="stop1" offset="1" stop-opacity="1" stop-color="#1d1643" data-c-stop-color="35577b" data-o-stop-color="1"/></linearGradient><linearGradient id="c" gradientUnits="userSpaceOnUse" x1="1048.37" y1="542.46" x2="993.603" y2="452.174"><stop class="stop0" offset="0" stop-opacity="1" stop-color="#1d1643" data-c-stop-color="33103b" data-o-stop-color="1"/><stop class="stop1" offset="1" stop-opacity="1" stop-color="rgb(31,50,74)" data-c-stop-color="1f324a" data-o-stop-color="1"/></linearGradient><linearGradient id="b" gradientUnits="userSpaceOnUse" x1="1253.24" y1="630.389" x2="1115.31" y2="558.19"><stop class="stop0" offset="0" stop-opacity="1" stop-color="#1f324a" data-c-stop-color="2c1e43" data-o-stop-color="1"/><stop class="stop1" offset="1" stop-opacity="1" stop-color="#1d1643" data-c-stop-color="1e324a" data-o-stop-color="1"/></linearGradient><linearGradient id="a" gradientUnits="userSpaceOnUse" x1="863.404" y1="103.05" x2="1221.95" y2="463.767"><stop class="stop0" offset="0" stop-opacity="1" stop-color="#1d1643" data-c-stop-color="31153d" data-o-stop-color="1"/><stop class="stop1" offset="1" stop-opacity="1" stop-color="rgb(33,49,76)" data-c-stop-color="21314c" data-o-stop-color="1"/></linearGradient></defs><path fill="url(#a)" d="M 914.438 139.88 C 917.554 139.806 942.229 140.941 946.261 141.248 C 964.105 142.604 1006.04 140.712 1020.9 144.505 C 1030.47 146.827 1033.13 153.112 1038.73 154.282 C 1060.69 158.067 1073.9 162.892 1094.09 167.466 C 1140.75 177.975 1187.26 189.104 1233.61 200.851 C 1263.7 208.376 1295.74 217.022 1325.87 223.669 C 1331.58 225.103 1352.74 231.551 1357.22 231.882 C 1367.32 235.809 1415.58 281.413 1427.84 292.221 L 1521.25 374.278 C 1541.09 388.906 1541.45 391.412 1556.14 407.641 L 1557.55 409.768 C 1552.68 412.506 1514.1 395.685 1505.56 392.796 C 1477.96 383.451 1450.14 372.533 1422.6 363.111 C 1407.99 358.112 1375.83 341.365 1362 343.535 L 1342.78 345.668 C 1332.36 347.089 1302.3 351.743 1294.05 351.048 C 1293.51 365.052 1292.05 387.326 1292.84 400.633 C 1291.62 411.457 1290.51 422.292 1289.49 433.136 C 1272.56 431.923 1229.29 421.746 1212.49 418.174 C 1177.74 410.566 1142.75 404.023 1107.59 398.553 C 1090.08 402.246 1050.22 423.021 1031.58 430.192 C 1026.26 432.241 991.894 446.816 988.192 448.928 L 986.158 451.176 L 983.39 456.132 C 976.347 464.919 954.025 496.92 951.802 506.744 L 947.328 506.176 C 934.377 502.079 919.567 494.913 906.55 490.762 C 896.62 487.595 883.849 484.967 873.351 482.203 C 869.997 480.505 868.229 479.259 864.49 479.533 C 866.448 473.188 869.203 450.526 870.309 442.738 L 869.356 442.829 C 867.314 441.363 866.675 441.407 864.139 440.881 C 853.858 437.609 842.163 433.71 832.425 429.219 C 826.494 427.745 823.558 426.567 817.985 424.307 C 819.91 418.659 889.179 338.661 898.403 326.558 C 878.874 286.966 855.572 246.447 835.258 207.077 C 829.928 196.746 789.213 185.092 785.855 178.441 L 786.409 176.824 C 799.082 170.246 869.782 180.943 883.922 187.841 C 887.9 189.781 902.371 193.949 905.208 193.203 L 906.609 185.041 C 907.845 178.284 908.75 168.264 909.608 161.218 C 910.996 154.958 912.146 146.613 913.216 140.148 L 914.438 139.88 z"/><path fill="#fad064" d="M 962.014 185.033 C 1041.01 205.558 1118.45 229.381 1197.1 250.755 C 1225.96 258.596 1265.12 272.151 1293.14 277.836 C 1295.2 276.972 1299.22 270.53 1301.91 268.779 C 1312.28 262.028 1329.06 250.678 1340.06 246.146 C 1344.18 241.764 1351.23 240.649 1357.22 231.882 C 1367.32 235.809 1415.58 281.413 1427.84 292.221 L 1521.25 374.278 C 1541.09 388.906 1541.45 391.412 1556.14 407.641 L 1557.55 409.768 C 1552.68 412.506 1514.1 395.685 1505.56 392.796 C 1477.96 383.451 1450.14 372.533 1422.6 363.111 C 1407.99 358.112 1375.83 341.365 1362 343.535 L 1342.78 345.668 C 1332.36 347.089 1302.3 351.743 1294.05 351.048 L 1292.1 350.589 C 1280.68 352.899 1237.83 342.948 1223.79 341.276 C 1218.16 340.606 1211.97 338.678 1205.87 339.383 L 1203.84 337.38 C 1186.02 327.92 1167.73 315.348 1150.7 304.496 L 1077.62 258.779 C 1046.17 239.023 1001.33 214.664 973.195 191.614 C 968.496 189.246 966.258 188.078 962.014 185.033 z" data-c-fill="e8950a" fill-opacity="1"/><path fill="#202b42" d="M 1357.22 231.882 C 1367.32 235.809 1415.58 281.413 1427.84 292.221 L 1521.25 374.278 C 1541.09 388.906 1541.45 391.412 1556.14 407.641 C 1536.49 400.223 1522.32 390.526 1503.97 380.884 L 1393.68 323.467 C 1378.65 315.716 1363.68 307.846 1348.77 299.857 C 1325.16 287.248 1319.3 284.654 1293.14 277.836 C 1295.2 276.972 1299.22 270.53 1301.91 268.779 C 1312.28 262.028 1329.06 250.678 1340.06 246.146 C 1344.18 241.764 1351.23 240.649 1357.22 231.882 z" data-c-fill="2a2042" fill-opacity="1"/><path fill="rgb(51,72,113)" d="M 1357.22 231.882 C 1367.32 235.809 1415.58 281.413 1427.84 292.221 L 1521.25 374.278 L 1521.9 377.659 L 1520.44 378.368 C 1515.08 376.359 1485.31 353.84 1479.09 349.323 C 1432.28 315.57 1385.93 281.174 1340.06 246.146 C 1344.18 241.764 1351.23 240.649 1357.22 231.882 z" data-c-fill="334871"/><path fill="#ad0e07" d="M 973.195 191.614 C 992.815 194.449 1015.58 207.482 1034.38 214.39 C 1056.83 222.637 1079.06 232.158 1101.26 241.025 L 1167.6 267.389 C 1176.38 270.87 1198 278.177 1204.7 283.417 C 1203.1 301.047 1205.21 320.859 1203.84 337.38 C 1186.02 327.92 1167.73 315.348 1150.7 304.496 L 1077.62 258.779 C 1046.17 239.023 1001.33 214.664 973.195 191.614 z" data-c-fill="a61009" fill-opacity="1"/><path fill="#fad064" d="M 1204.7 283.417 L 1213.16 289.112 C 1214.2 288.073 1215.08 286.728 1216.34 287.196 C 1249.63 299.622 1334.12 327.11 1361.27 340.914 C 1361.47 341.554 1361.95 342.948 1362 343.535 L 1342.78 345.668 C 1332.36 347.089 1302.3 351.743 1294.05 351.048 L 1292.1 350.589 C 1280.68 352.899 1237.83 342.948 1223.79 341.276 C 1218.16 340.606 1211.97 338.678 1205.87 339.383 L 1203.84 337.38 C 1205.21 320.859 1203.1 301.047 1204.7 283.417 z" data-c-fill="f2b007" fill-opacity="1"/><path fill="rgb(240,31,25)" d="M 1204.7 283.417 L 1213.16 289.112 C 1239.31 308.995 1267.33 329.232 1292.1 350.589 C 1280.68 352.899 1237.83 342.948 1223.79 341.276 C 1218.16 340.606 1211.97 338.678 1205.87 339.383 L 1203.84 337.38 C 1205.21 320.859 1203.1 301.047 1204.7 283.417 z" data-c-fill="f01f19"/><path fill="#ad0e07" d="M 938.472 193.183 C 947.442 197.046 966.455 212.585 976.091 219.102 L 1056.86 274.896 C 1073.96 286.674 1094 299.511 1110.33 311.915 C 1108.98 316.034 1109.62 321.694 1109.83 326.157 L 1110.03 326.862 C 1109.4 338.122 1107.74 386.134 1106 395.351 L 1106.07 395.944 L 1107.59 398.553 C 1090.08 402.246 1050.22 423.021 1031.58 430.192 C 1026.26 432.241 991.894 446.816 988.192 448.928 C 985.932 443.419 1004.74 356.786 1005.14 341.272 L 1005.72 338.577 L 1006.29 337.974 L 1006.11 336.564 C 1005.6 332.807 944.843 204.217 938.472 193.183 z" data-c-fill="a61009" fill-opacity="1"/><path fill="rgb(240,31,25)" d="M 1006.29 337.974 C 1015.64 338.182 1098.3 396.194 1106.07 395.944 L 1107.59 398.553 C 1090.08 402.246 1050.22 423.021 1031.58 430.192 C 1026.26 432.241 991.894 446.816 988.192 448.928 C 985.932 443.419 1004.74 356.786 1005.14 341.272 L 1005.72 338.577 L 1006.29 337.974 z" data-c-fill="f01f19"/><path fill="rgb(240,31,25)" d="M 989.913 255.189 C 1015.79 271.38 1043.96 287.118 1070.24 302.821 C 1082.86 310.364 1096.71 320.797 1109.83 326.157 L 1110.03 326.862 C 1109.4 338.122 1107.74 386.134 1106 395.351 C 1101.66 394.018 1065.83 347.332 1060.49 340.67 C 1037.16 312.015 1013.63 283.521 989.913 255.189 z" data-c-fill="f01f19"/><path fill="#202b42" d="M 870.309 442.738 C 873.769 441.324 895.866 422.164 900.554 418.668 C 922.375 402.399 943.63 384.535 965.239 368.088 C 976.842 359.258 993.425 345.718 1005.72 338.577 L 1005.14 341.272 C 1004.74 356.786 985.932 443.419 988.192 448.928 L 986.158 451.176 L 983.39 456.132 C 976.347 464.919 954.025 496.92 951.802 506.744 L 947.328 506.176 C 934.377 502.079 919.567 494.913 906.55 490.762 C 896.62 487.595 883.849 484.967 873.351 482.203 C 869.997 480.505 868.229 479.259 864.49 479.533 C 866.448 473.188 869.203 450.526 870.309 442.738 z" data-c-fill="2a2042" fill-opacity="1"/><path fill="#ad0e07" d="M 986.158 451.176 C 973.421 451.369 912.095 485.389 902.054 485.291 L 901.073 484.251 C 902.166 481.261 920.805 456.837 924.494 451.63 C 940.815 428.347 957.255 405.148 973.813 382.033 C 984.734 366.654 991.659 354.807 1005.14 341.272 C 1004.74 356.786 985.932 443.419 988.192 448.928 L 986.158 451.176 z" data-c-fill="a61009" fill-opacity="1"/><path fill="#fad064" d="M 1110.03 326.862 C 1127.26 332.141 1154.45 353.75 1173.36 355.108 C 1209.79 378.063 1247.02 405.346 1283.54 429.374 C 1276.3 418.416 1261.33 401.867 1252.49 391.729 C 1237.26 374.002 1221.72 356.551 1205.87 339.383 C 1211.97 338.678 1218.16 340.606 1223.79 341.276 C 1237.83 342.948 1280.68 352.899 1292.1 350.589 L 1294.05 351.048 C 1293.51 365.052 1292.05 387.326 1292.84 400.633 C 1291.62 411.457 1290.51 422.292 1289.49 433.136 C 1272.56 431.923 1229.29 421.746 1212.49 418.174 C 1177.74 410.566 1142.75 404.023 1107.59 398.553 L 1106.07 395.944 L 1106 395.351 C 1107.74 386.134 1109.4 338.122 1110.03 326.862 z" data-c-fill="f2b007" fill-opacity="1"/><path fill="rgb(55,92,136)" d="M979.862 174.42C994.341 168.723 1023.48 159.163 1038.73 154.282 1060.69 158.067 1073.9 162.892 1094.09 167.466 1140.75 177.975 1187.26 189.104 1233.61 200.851 1263.7 208.376 1295.74 217.022 1325.87 223.669 1318.5 228.444 1204.51 209.107 1189.46 206.542 1120.21 194.74 1048.82 187.311 979.862 174.42zM914.438 139.88C917.554 139.806 942.229 140.941 946.261 141.248 964.105 142.604 1006.04 140.712 1020.9 144.505 1009.69 153.092 950.505 176.609 934.225 183.672 930.221 186.07 912.105 192.002 907.489 192.436 906.559 189.4 906.651 188.123 906.609 185.041 907.845 178.284 908.75 168.264 909.608 161.218 910.996 154.958 912.146 146.613 913.216 140.148L914.438 139.88z" data-c-fill="375c88"/><path fill="rgb(30,50,76)" d="M 913.216 140.148 L 914.438 139.88 C 921.119 155.907 926.818 168.093 934.225 183.672 C 930.221 186.07 912.105 192.002 907.489 192.436 C 906.559 189.4 906.651 188.123 906.609 185.041 C 907.845 178.284 908.75 168.264 909.608 161.218 C 910.996 154.958 912.146 146.613 913.216 140.148 z" data-c-fill="1e324c"/><path fill="rgb(51,72,113)" d="M 939.743 352.353 C 941.021 350.065 950.978 343.219 953.509 341.92 C 967.448 334.767 990.596 334.971 1006.11 336.564 L 1006.29 337.974 L 1005.72 338.577 C 993.425 345.718 976.842 359.258 965.239 368.088 C 943.63 384.535 922.375 402.399 900.554 418.668 C 895.866 422.164 873.769 441.324 870.309 442.738 L 869.356 442.829 C 867.314 441.363 866.675 441.407 864.139 440.881 C 870.874 434.019 878.144 427.184 884.289 419.813 C 902.935 397.45 923.156 378.257 940.133 354.539 L 939.743 352.353 z" data-c-fill="334871"/><path fill="rgb(60,108,155)" d="M 939.743 352.353 L 940.133 354.539 C 923.156 378.257 902.935 397.45 884.289 419.813 C 878.144 427.184 870.874 434.019 864.139 440.881 C 853.858 437.609 842.163 433.71 832.425 429.219 C 867.423 405.926 905.247 377.133 939.743 352.353 z" data-c-fill="3c6c9b"/><path fill="rgb(210,114,17)" d="M 1110.33 311.915 C 1126.96 322.735 1158.37 342.816 1173.36 355.108 C 1154.45 353.75 1127.26 332.141 1110.03 326.862 L 1109.83 326.157 C 1109.62 321.694 1108.98 316.034 1110.33 311.915 z" data-c-fill="d27211"/><path fill="#202b42" d="M 695.14 232.869 C 697.181 232.418 700.635 232.284 702.828 232.128 L 701.847 235.516 L 709.364 234.87 C 718.899 230.997 757.835 247.553 769.281 250.869 C 775.043 252.538 787.204 251.927 790.273 256.545 C 786.181 262.969 760.41 265.808 750.72 270.235 C 764.391 282.22 779.732 293.457 793.987 304.718 C 799.27 308.891 811.624 316.813 814.932 321.007 L 814.834 322.779 C 809.872 325.268 785.775 321.07 776.717 321.558 L 777.961 324.045 C 793.512 345.558 808.582 371.432 824.629 393.217 C 815.849 390.932 795.004 385.006 787.333 384.231 C 788.422 390.395 796.093 412.617 799.347 418.09 C 805.591 420.064 811.805 422.137 817.985 424.307 C 823.558 426.567 826.494 427.745 832.425 429.219 C 842.163 433.71 853.858 437.609 864.139 440.881 C 866.675 441.407 867.314 441.363 869.356 442.829 L 870.309 442.738 C 869.203 450.526 866.448 473.188 864.49 479.533 C 868.229 479.259 869.997 480.505 873.351 482.203 C 883.849 484.967 896.62 487.595 906.55 490.762 C 919.567 494.913 934.377 502.079 947.328 506.176 L 951.802 506.744 C 955.734 507.546 960.877 510.151 963.71 512.865 L 963.174 513.803 C 959.41 511.816 954.334 508.931 950.484 507.462 C 955.65 530.082 957.144 549.93 961.416 571.982 L 960.6 572.697 C 941.469 579.158 922.394 585.784 903.378 592.576 C 899.208 594.103 886.273 598.606 882.686 600.44 L 882.978 601.639 C 881.615 618.206 880.072 635.076 878.969 651.644 L 880.257 656.051 L 882.951 656.165 L 880.494 658.852 C 872.303 658.061 811.777 615.95 797.992 608.346 C 791.867 615.25 797.941 658.999 789.036 659.779 C 788.856 659.794 788.675 659.779 788.495 659.779 L 788.303 662.657 C 782.111 661.001 768.111 660.11 760.651 659.113 C 757.587 657.863 754.808 656.35 751.874 654.83 C 746.158 652.398 732.406 644.125 726.417 640.806 C 711.121 632.458 695.769 624.212 680.363 616.069 L 679.555 613.245 C 675.903 610.503 628.666 520.269 626.486 512.297 C 627.985 502.268 631.018 495.041 633.508 485.692 C 638.728 466.094 645.91 446.154 650.246 426.497 C 651.345 415.565 655.033 376.655 657.352 367.76 C 654.62 357.636 648.273 347.526 637.075 346.795 C 637.33 346.424 637.35 345.674 637.428 345.136 C 633.266 340.921 622.867 331.866 617.647 329.596 L 618.547 327.522 C 606.56 324.666 585.508 311.383 573.156 305.589 C 574.509 304.878 577.373 304.037 578.943 303.516 L 575.275 301.767 L 584.694 293.963 C 594.512 280.323 612.794 265.997 620.335 254.543 L 619.21 253.354 C 620.922 252.542 623.932 252.977 626.067 253.058 L 627.403 251.92 C 650.059 245.802 672.805 240.038 695.14 232.869 z" data-c-fill="2a2042" fill-opacity="1"/><path fill="rgb(240,31,25)" d="M 799.347 418.09 C 805.591 420.064 811.805 422.137 817.985 424.307 C 823.558 426.567 826.494 427.745 832.425 429.219 C 842.163 433.71 853.858 437.609 864.139 440.881 C 866.675 441.407 867.314 441.363 869.356 442.829 L 870.309 442.738 C 869.203 450.526 866.448 473.188 864.49 479.533 C 868.229 479.259 869.997 480.505 873.351 482.203 C 883.849 484.967 896.62 487.595 906.55 490.762 C 919.567 494.913 934.377 502.079 947.328 506.176 L 951.802 506.744 C 955.734 507.546 960.877 510.151 963.71 512.865 L 963.174 513.803 C 959.41 511.816 954.334 508.931 950.484 507.462 C 955.65 530.082 957.144 549.93 961.416 571.982 L 960.6 572.697 C 941.469 579.158 922.394 585.784 903.378 592.576 C 899.208 594.103 886.273 598.606 882.686 600.44 L 882.978 601.639 C 881.615 618.206 880.072 635.076 878.969 651.644 L 880.257 656.051 L 882.951 656.165 L 880.494 658.852 C 872.303 658.061 811.777 615.95 797.992 608.346 C 791.867 615.25 797.941 658.999 789.036 659.779 C 788.856 659.794 788.675 659.779 788.495 659.779 L 788.303 662.657 C 782.111 661.001 768.111 660.11 760.651 659.113 C 757.587 657.863 754.808 656.35 751.874 654.83 C 746.158 652.398 732.406 644.125 726.417 640.806 C 711.121 632.458 695.769 624.212 680.363 616.069 L 679.555 613.245 C 680.075 612.164 680.199 612.466 680.917 611.6 C 684.549 607.222 687.075 596.301 686.936 590.861 C 691.413 572.315 699.562 552.316 705.458 534.033 C 708.002 526.145 712.239 515.133 713.477 507.187 L 713.81 507.329 C 717.383 508.189 718.937 505.759 721.684 503.561 C 728.83 498.206 748.162 482.587 755.789 481.062 C 759.711 478.137 762.611 476.148 765.924 472.459 C 768.077 467.738 776.125 456.171 779.358 451.385 C 787.019 440.041 793.108 430.365 799.347 418.09 z" data-c-fill="f01f19"/><path fill="#202b42" d="M 806.006 478.712 C 821.687 479.57 837.624 478.807 853.432 479.267 C 856.613 479.383 861.465 479.698 864.49 479.533 C 868.229 479.259 869.997 480.505 873.351 482.203 C 883.849 484.967 896.62 487.595 906.55 490.762 C 919.567 494.913 934.377 502.079 947.328 506.176 L 951.802 506.744 C 955.734 507.546 960.877 510.151 963.71 512.865 L 963.174 513.803 C 959.41 511.816 954.334 508.931 950.484 507.462 C 955.65 530.082 957.144 549.93 961.416 571.982 L 960.6 572.697 C 941.469 579.158 922.394 585.784 903.378 592.576 C 899.208 594.103 886.273 598.606 882.686 600.44 C 875.245 598.483 862.336 590.105 856.436 591.963 C 848.389 575.189 836.898 537.414 829.682 525.649 L 829.973 524.853 C 825.866 511.668 808.309 489.023 805.065 479.485 L 806.006 478.712 z" data-c-fill="2a2042" fill-opacity="1"/><path fill="rgb(30,50,76)" d="M862.065 557.026C863.131 543.391 863.291 491.075 865.647 482.219 868.542 481.004 869.838 481.76 873.351 482.203 883.849 484.967 896.62 487.595 906.55 490.762 919.567 494.913 934.377 502.079 947.328 506.176 946.843 507.803 947.063 508.132 945.323 509.009 916.659 523.439 889.705 540.814 862.065 557.026zM806.006 478.712C821.687 479.57 837.624 478.807 853.432 479.267 856.259 480.727 857.165 481.048 859.194 483.578 856.753 489.951 835.309 517.864 829.973 524.853 825.866 511.668 808.309 489.023 805.065 479.485L806.006 478.712z" data-c-fill="1e324c"/><path fill="rgb(51,72,113)" d="M 805.065 479.485 C 808.309 489.023 825.866 511.668 829.973 524.853 L 829.682 525.649 C 836.898 537.414 848.389 575.189 856.436 591.963 C 862.336 590.105 875.245 598.483 882.686 600.44 L 882.978 601.639 C 881.615 618.206 880.072 635.076 878.969 651.644 L 880.257 656.051 L 882.951 656.165 L 880.494 658.852 C 872.303 658.061 811.777 615.95 797.992 608.346 C 796.862 607.134 787.777 600.706 786.001 599.436 C 764.817 584.291 742.622 574.342 723.85 555.582 L 719.819 554.628 C 723.971 549.21 741.448 534.691 747.619 529.37 L 803.9 481.087 L 805.065 479.485 z" data-c-fill="334871"/><path fill="rgb(60,108,155)" d="M 805.065 479.485 C 808.309 489.023 825.866 511.668 829.973 524.853 L 829.682 525.649 C 822.033 535.14 810.111 555.189 802.539 561.859 C 799.348 563.41 735.124 555.268 723.85 555.582 L 719.819 554.628 C 723.971 549.21 741.448 534.691 747.619 529.37 L 803.9 481.087 L 805.065 479.485 z" data-c-fill="3c6c9b"/><path fill="rgb(51,72,113)" d="M 805.065 479.485 C 808.309 489.023 825.866 511.668 829.973 524.853 L 829.682 525.649 C 822.033 535.14 810.111 555.189 802.539 561.859 C 800.925 546.536 807.765 488.989 803.9 481.087 L 805.065 479.485 z" data-c-fill="334871"/><path fill="rgb(30,50,76)" d="M 802.539 561.859 C 810.111 555.189 822.033 535.14 829.682 525.649 C 836.898 537.414 848.389 575.189 856.436 591.963 C 862.336 590.105 875.245 598.483 882.686 600.44 L 882.978 601.639 C 881.615 618.206 880.072 635.076 878.969 651.644 L 880.257 656.051 L 878.238 656.36 C 869.276 647.127 803.314 565.928 802.539 561.859 z" data-c-fill="1e324c"/><path fill="#ad0e07" d="M 856.436 591.963 C 862.336 590.105 875.245 598.483 882.686 600.44 L 882.978 601.639 C 881.615 618.206 880.072 635.076 878.969 651.644 C 868.962 631.801 864.173 612.684 856.436 591.963 z" data-c-fill="a61009" fill-opacity="1"/><path fill="rgb(30,50,76)" d="M 719.819 554.628 L 723.85 555.582 C 742.622 574.342 764.817 584.291 786.001 599.436 C 787.777 600.706 796.862 607.134 797.992 608.346 C 791.867 615.25 797.941 658.999 789.036 659.779 C 788.856 659.794 788.675 659.779 788.495 659.779 L 788.303 662.657 C 782.111 661.001 768.111 660.11 760.651 659.113 C 757.587 657.863 754.808 656.35 751.874 654.83 C 751.644 647.982 727.215 576.828 723.671 565.961 C 721.909 561.623 721.062 559.141 719.819 554.628 z" data-c-fill="1e324c"/><path fill="#ad0e07" d="M723.671 565.961C737.315 574.842 765.943 631.249 779.947 646.575 781.904 648.718 786.923 656.929 788.495 659.779L788.303 662.657C782.111 661.001 768.111 660.11 760.651 659.113 757.587 657.863 754.808 656.35 751.874 654.83 751.644 647.982 727.215 576.828 723.671 565.961zM869.356 442.829 870.309 442.738C869.203 450.526 866.448 473.188 864.49 479.533 861.465 479.698 856.613 479.383 853.432 479.267 837.624 478.807 821.687 479.57 806.006 478.712 825.016 466.682 853.956 453.891 869.356 442.829z" data-c-fill="a61009" fill-opacity="1"/><path fill="#fad064" d="M765.924 472.459C771.689 470.915 778.275 468.945 784.113 468.12 791.709 471.742 796.792 474.511 803.818 479.254 777.294 483.128 762.309 489.411 741.09 504.798 744.794 499.116 753.324 486.583 755.789 481.062 759.711 478.137 762.611 476.148 765.924 472.459zM657.599 419.919C663.62 414.29 679.062 400.679 683.718 394.752 693.592 382.182 701.079 370.258 711.999 357.65 708.41 381.047 704.641 405.624 700.129 428.833L699.937 429.519C701.334 438.725 707.321 473.018 707.422 480.126 710.228 488.76 711.788 498.229 713.477 507.187 712.239 515.133 708.002 526.145 705.458 534.033 699.562 552.316 691.413 572.315 686.936 590.861 687.075 596.301 684.549 607.222 680.917 611.6 680.199 612.466 680.075 612.164 679.555 613.245 675.903 610.503 628.666 520.269 626.486 512.297 627.985 502.268 631.018 495.041 633.508 485.692 638.728 466.094 645.91 446.154 650.246 426.497 653.509 424.562 656.63 423.108 657.599 419.919z" data-c-fill="f2b007" fill-opacity="1"/><path fill="rgb(215,62,15)" d="M 626.486 512.297 C 646.029 521.368 675.224 534.459 693.294 543.899 C 692.725 552.499 686.169 587.196 686.936 590.861 C 687.075 596.301 684.549 607.222 680.917 611.6 C 680.199 612.466 680.075 612.164 679.555 613.245 C 675.903 610.503 628.666 520.269 626.486 512.297 z" data-c-fill="d73e0f"/><path fill="rgb(240,31,25)" d="M 628.736 509.077 C 650.748 481.71 678.763 456.269 699.937 429.519 C 701.334 438.725 707.321 473.018 707.422 480.126 C 701.607 473.99 698.453 469.385 693.787 462.431 C 677.199 475.478 646.591 498.148 628.736 509.077 z" data-c-fill="f01f19"/><path fill="rgb(30,50,76)" d="M 711.13 354.554 C 714.355 330.573 710.941 319.882 711.492 297.145 C 724.624 318.618 734.768 346.333 744.819 369.487 C 752.134 386.338 760.136 402.398 766.701 419.774 C 756.366 441.439 725.334 483.385 721.684 503.561 C 718.937 505.759 717.383 508.189 713.81 507.329 L 713.477 507.187 C 711.788 498.229 710.228 488.76 707.422 480.126 C 707.321 473.018 701.334 438.725 699.937 429.519 L 700.129 428.833 C 704.641 405.624 708.41 381.047 711.999 357.65 L 711.13 354.554 z" data-c-fill="1e324c"/><path fill="rgb(51,72,113)" d="M 700.129 428.833 C 706.446 422.546 735.872 375.522 741.475 365.753 C 740.714 383.387 736.443 396.438 733.496 413.077 C 728.169 443.163 718.499 477.629 713.81 507.329 L 713.477 507.187 C 711.788 498.229 710.228 488.76 707.422 480.126 C 707.321 473.018 701.334 438.725 699.937 429.519 L 700.129 428.833 z" data-c-fill="334871"/><path fill="rgb(30,50,76)" d="M 695.14 232.869 C 697.181 232.418 700.635 232.284 702.828 232.128 L 701.847 235.516 L 709.364 234.87 C 707.937 236.57 705.797 239.299 704.327 240.806 L 702.77 240.279 L 703.352 238.468 C 697.521 238.316 642.284 268.488 634.186 274.661 C 633.159 275.443 633.737 284.702 633.895 287.392 C 636.224 290.647 641.881 293.032 645.521 291.596 C 641.2 291.849 636.493 292.224 632.197 292.275 L 630.932 292.278 L 629.885 294.066 L 626.309 304.275 C 624.053 311.19 622.014 319.171 619.737 325.731 L 618.547 327.522 C 606.56 324.666 585.508 311.383 573.156 305.589 C 574.509 304.878 577.373 304.037 578.943 303.516 L 575.275 301.767 L 584.694 293.963 C 594.512 280.323 612.794 265.997 620.335 254.543 L 619.21 253.354 C 620.922 252.542 623.932 252.977 626.067 253.058 L 627.403 251.92 C 650.059 245.802 672.805 240.038 695.14 232.869 z" data-c-fill="1e324c"/><path fill="rgb(51,72,113)" d="M 578.943 303.516 C 587.143 300.272 620.544 293.757 629.885 294.066 L 626.309 304.275 C 624.053 311.19 622.014 319.171 619.737 325.731 L 618.547 327.522 C 606.56 324.666 585.508 311.383 573.156 305.589 C 574.509 304.878 577.373 304.037 578.943 303.516 z" data-c-fill="334871"/><path fill="rgb(60,108,155)" d="M 695.14 232.869 C 697.181 232.418 700.635 232.284 702.828 232.128 L 701.847 235.516 C 689.95 242.5 676.457 248.389 664.136 254.861 C 652.809 260.81 641.807 267.697 630.643 273.582 C 629.459 268.55 627.354 257.353 626.067 253.058 L 627.403 251.92 C 650.059 245.802 672.805 240.038 695.14 232.869 z" data-c-fill="3c6c9b"/><path fill="#202b42" d="M 630.287 273.45 C 633.428 282.303 633.103 282.969 630.932 292.278 L 629.885 294.066 C 620.544 293.757 587.143 300.272 578.943 303.516 L 575.275 301.767 L 584.694 293.963 C 589.938 293.402 592.042 292.639 596.588 289.792 C 608.043 282.617 617.295 277.612 630.287 273.45 z" data-c-fill="2a2042" fill-opacity="1"/><path fill="rgb(240,31,25)" d="M 673.599 363.309 C 673.602 356.307 675.296 316.674 678.066 313.071 C 688.494 326.461 700.069 341.765 711.13 354.554 L 711.999 357.65 C 701.079 370.258 693.592 382.182 683.718 394.752 C 679.062 400.679 663.62 414.29 657.599 419.919 C 656.63 423.108 653.509 424.562 650.246 426.497 C 651.345 415.565 655.033 376.655 657.352 367.76 C 659.822 367.491 670.606 364.173 673.599 363.309 z" data-c-fill="f01f19"/><path fill="#fad064" d="M 673.599 363.309 L 679.91 388.328 C 673.867 397.535 660.359 411.805 657.599 419.919 C 656.63 423.108 653.509 424.562 650.246 426.497 C 651.345 415.565 655.033 376.655 657.352 367.76 C 659.822 367.491 670.606 364.173 673.599 363.309 z" data-c-fill="f2b007" fill-opacity="1"/><path fill="rgb(51,72,113)" d="M 748.168 271.032 L 750.72 270.235 C 764.391 282.22 779.732 293.457 793.987 304.718 C 799.27 308.891 811.624 316.813 814.932 321.007 L 814.834 322.779 C 809.872 325.268 785.775 321.07 776.717 321.558 C 775.468 321.423 774.306 320.045 773.113 319.044 C 766.735 317.687 717.658 290.449 709.072 285.64 C 719.725 280.433 736.248 273.315 748.051 271.788 L 748.168 271.032 z" data-c-fill="334871"/><path fill="rgb(240,31,25)" d="M 748.168 271.032 L 750.72 270.235 C 764.391 282.22 779.732 293.457 793.987 304.718 C 799.27 308.891 811.624 316.813 814.932 321.007 L 814.834 322.779 C 809.872 325.268 785.775 321.07 776.717 321.558 C 775.468 321.423 774.306 320.045 773.113 319.044 C 769.438 308.015 754.271 282.681 748.051 271.788 L 748.168 271.032 z" data-c-fill="f01f19"/><path fill="#ad0e07" d="M 619.737 325.731 C 632.16 322.25 661.017 309.491 675.597 304.06 C 676.076 306.084 677.216 311.55 678.066 313.071 C 675.296 316.674 673.602 356.307 673.599 363.309 C 670.606 364.173 659.822 367.491 657.352 367.76 C 654.62 357.636 648.273 347.526 637.075 346.795 C 637.33 346.424 637.35 345.674 637.428 345.136 C 633.266 340.921 622.867 331.866 617.647 329.596 L 618.547 327.522 L 619.737 325.731 z" data-c-fill="a61009" fill-opacity="1"/><path fill="rgb(240,31,25)" d="M 709.364 234.87 C 718.899 230.997 757.835 247.553 769.281 250.869 C 775.043 252.538 787.204 251.927 790.273 256.545 C 786.181 262.969 760.41 265.808 750.72 270.235 L 748.168 271.032 C 742.178 266.883 737.315 262.965 731.002 258.787 C 723.224 253.639 711.204 246.547 704.327 240.806 C 705.797 239.299 707.937 236.57 709.364 234.87 z" data-c-fill="f01f19"/><path fill="#ad0e07" d="M 777.961 324.045 C 793.512 345.558 808.582 371.432 824.629 393.217 C 815.849 390.932 795.004 385.006 787.333 384.231 C 784.366 375.448 776.278 332.839 777.961 324.045 z" data-c-fill="a61009" fill-opacity="1"/><path fill="rgb(210,114,17)" d="M 626.309 304.275 C 634.021 309.149 673.814 294.347 688.331 298.432 C 683.979 300.239 679.813 301.921 675.597 304.06 C 661.017 309.491 632.16 322.25 619.737 325.731 C 622.014 319.171 624.053 311.19 626.309 304.275 z" data-c-fill="d27211"/><path fill="#fad064" d="M 630.932 292.278 L 632.197 292.275 C 647.711 293.526 679.445 292.797 692.515 295.097 L 693.057 295.951 L 688.331 298.432 C 673.814 294.347 634.021 309.149 626.309 304.275 L 629.885 294.066 L 630.932 292.278 z" data-c-fill="f2b007" fill-opacity="1"/><path fill="rgb(51,72,113)" d="M 1080.97 428.473 L 1085.69 427.351 L 1087.16 428.376 C 1087.99 433.753 1081.94 444.522 1080.1 450.909 C 1084.61 452.432 1086.15 452.236 1090.95 452.119 C 1106.75 450.737 1141.44 442.634 1159.18 439.345 C 1165.69 437.334 1168.41 436.618 1175.24 435.576 L 1178.15 435.103 L 1178.99 436.311 C 1173.91 448.74 1162.34 459.009 1159.35 465.575 C 1162.63 467.261 1163.88 467.989 1167.48 468.933 C 1175.67 465.652 1241.76 467.702 1254.03 468.239 C 1258.12 468.063 1259.47 467.185 1261.9 469.264 C 1261.04 477.016 1244.07 482.401 1239.44 493 C 1244.58 500.622 1269.87 512.143 1278.78 516.724 L 1280.01 518.478 C 1280.66 527.633 1284.39 580.848 1281.45 586.911 C 1281.9 589.623 1281.88 589.785 1283.27 592.108 L 1282.18 591.955 C 1266.56 598.683 1211.86 600.662 1203.95 606.935 L 1199.55 606.709 C 1200.25 616.301 1200.98 624.472 1202.3 633.982 C 1197.9 638.411 1182.85 659.005 1177.34 665.799 C 1173.34 669.712 1147.26 699.363 1146.81 702.635 C 1145.3 702.357 1143.93 700.861 1142.69 699.788 C 1127.73 679.788 1112.26 658.934 1096.67 639.476 C 1089.16 630.901 1081.58 617.568 1072.77 610.261 C 1055.47 609.895 1028.9 601.182 1010.15 601.021 L 1009.26 601.122 C 999.269 592.764 969.787 580.169 963.899 572.039 L 961.416 571.982 C 957.144 549.93 955.65 530.082 950.484 507.462 C 954.334 508.931 959.41 511.816 963.174 513.803 L 963.71 512.865 C 960.877 510.151 955.734 507.546 951.802 506.744 C 954.025 496.92 976.347 464.919 983.39 456.132 L 988.046 456.199 C 1008.87 451.345 1028.45 445.476 1048.96 439.47 C 1058.85 436.575 1071.19 429.944 1080.97 428.473 z" data-c-fill="334871"/><path fill="url(#b)" d="M 1159.35 465.575 C 1162.63 467.261 1163.88 467.989 1167.48 468.933 C 1175.67 465.652 1241.76 467.702 1254.03 468.239 C 1258.12 468.063 1259.47 467.185 1261.9 469.264 C 1261.04 477.016 1244.07 482.401 1239.44 493 C 1244.58 500.622 1269.87 512.143 1278.78 516.724 L 1280.01 518.478 C 1280.66 527.633 1284.39 580.848 1281.45 586.911 C 1281.9 589.623 1281.88 589.785 1283.27 592.108 L 1282.18 591.955 C 1266.56 598.683 1211.86 600.662 1203.95 606.935 L 1199.55 606.709 C 1200.25 616.301 1200.98 624.472 1202.3 633.982 C 1197.9 638.411 1182.85 659.005 1177.34 665.799 C 1173.34 669.712 1147.26 699.363 1146.81 702.635 C 1145.3 702.357 1143.93 700.861 1142.69 699.788 C 1145.46 694.078 1133.18 651.657 1130.79 642.523 C 1125.76 622.784 1121.02 602.97 1116.59 583.088 C 1126.7 577.629 1180.94 545.711 1187.51 540.06 L 1187.47 538.295 C 1179.89 516.891 1166.71 487.252 1157.89 465.909 L 1159.35 465.575 z"/><path fill="#ad0e07" d="M 1191.54 557.595 C 1210.54 565.41 1230.56 572.813 1249.74 580.323 C 1260.7 584.619 1270.93 586.796 1282.18 591.955 C 1266.56 598.683 1211.86 600.662 1203.95 606.935 L 1199.55 606.709 C 1197.67 601.93 1192.88 565.587 1191.54 557.595 z" data-c-fill="a61009" fill-opacity="1"/><path fill="rgb(60,108,155)" d="M 1235.26 492.958 L 1239.44 493 C 1244.58 500.622 1269.87 512.143 1278.78 516.724 L 1280.01 518.478 C 1280.66 527.633 1284.39 580.848 1281.45 586.911 C 1276.84 572.783 1268.17 558.702 1261.46 545.301 C 1253.43 529.262 1244.46 508.063 1235.26 492.958 z" data-c-fill="3c6c9b"/><path fill="rgb(210,114,17)" d="M 1167.48 468.933 C 1175.67 465.652 1241.76 467.702 1254.03 468.239 C 1258.12 468.063 1259.47 467.185 1261.9 469.264 C 1261.04 477.016 1244.07 482.401 1239.44 493 L 1235.26 492.958 C 1233.27 491.555 1219.77 487.066 1214.75 484.429 C 1200.7 480.781 1180.03 475.054 1167.48 468.933 z" data-c-fill="d27211"/><path fill="#ad0e07" d="M 1254.03 468.239 C 1258.12 468.063 1259.47 467.185 1261.9 469.264 C 1261.04 477.016 1244.07 482.401 1239.44 493 L 1235.26 492.958 C 1233.27 491.555 1219.77 487.066 1214.75 484.429 C 1227.29 479.555 1242.61 475.986 1254.44 469.507 L 1254.03 468.239 z" data-c-fill="a61009" fill-opacity="1"/><path fill="url(#c)" d="M 1080.97 428.473 L 1085.69 427.351 L 1087.16 428.376 C 1087.99 433.753 1081.94 444.522 1080.1 450.909 L 1077.8 455.756 L 1077.48 457.084 C 1064.36 485.481 1042.81 528.919 1032.38 556.728 L 1031.71 557.512 L 1030.29 558.031 C 1026.44 570.503 1013.3 591.175 1010.15 601.021 L 1009.26 601.122 C 999.269 592.764 969.787 580.169 963.899 572.039 L 961.416 571.982 C 957.144 549.93 955.65 530.082 950.484 507.462 C 954.334 508.931 959.41 511.816 963.174 513.803 L 963.71 512.865 C 960.877 510.151 955.734 507.546 951.802 506.744 C 954.025 496.92 976.347 464.919 983.39 456.132 L 988.046 456.199 C 1008.87 451.345 1028.45 445.476 1048.96 439.47 C 1058.85 436.575 1071.19 429.944 1080.97 428.473 z"/><path fill="rgb(51,72,113)" d="M 950.484 507.462 C 954.334 508.931 959.41 511.816 963.174 513.803 C 975.69 522.384 1023.62 548.946 1029.45 557.085 L 1030.29 558.031 C 1026.44 570.503 1013.3 591.175 1010.15 601.021 L 1009.26 601.122 C 999.269 592.764 969.787 580.169 963.899 572.039 L 961.416 571.982 C 957.144 549.93 955.65 530.082 950.484 507.462 z" data-c-fill="334871"/><path fill="rgb(240,31,25)" d="M1029.45 557.085 1030.29 558.031C1026.44 570.503 1013.3 591.175 1010.15 601.021L1009.26 601.122C999.269 592.764 969.787 580.169 963.899 572.039 977.887 567.605 1014.42 559.856 1029.45 557.085zM1080.97 428.473 1085.69 427.351 1087.16 428.376C1087.99 433.753 1081.94 444.522 1080.1 450.909L1077.8 455.756C1068.84 456.176 1059.11 456.82 1050.21 456.842 1037.7 457.774 996.999 461.876 988.046 456.199 1008.87 451.345 1028.45 445.476 1048.96 439.47 1058.85 436.575 1071.19 429.944 1080.97 428.473z" data-c-fill="f01f19"/><path fill="#ad0e07" d="M 1080.97 428.473 L 1085.69 427.351 L 1087.16 428.376 C 1087.99 433.753 1081.94 444.522 1080.1 450.909 L 1077.8 455.756 C 1068.84 456.176 1059.11 456.82 1050.21 456.842 C 1057.46 455.564 1073.05 438.439 1079.27 432.897 C 1081.28 431.111 1081.11 430.476 1080.97 428.473 z" data-c-fill="a61009" fill-opacity="1"/><path fill="rgb(60,108,155)" d="M1077.48 457.084C1077.66 457.223 1079.48 458.664 1079.48 458.664 1083.91 473.056 1087.72 487.681 1091.75 502.199 1099.26 529.301 1108.24 555.96 1116.42 582.879 1093.32 576.154 1070.28 567.98 1047.29 560.758 1042.05 559.11 1036.8 558.169 1032.38 556.728 1042.81 528.919 1064.36 485.481 1077.48 457.084zM1175.24 435.576 1178.15 435.103 1178.99 436.311C1173.91 448.74 1162.34 459.009 1159.35 465.575L1157.89 465.909C1166.71 487.252 1179.89 516.891 1187.47 538.295 1183.5 537.586 1162.73 519.979 1157.9 516.239L1113.4 481.725C1106.34 476.272 1091.88 465.607 1086.17 459.668L1086.4 458.316 1090.79 457.698C1089.56 454.665 1089.72 456.007 1090.95 452.119 1106.75 450.737 1141.44 442.634 1159.18 439.345 1165.69 437.334 1168.41 436.618 1175.24 435.576z" data-c-fill="3c6c9b"/><path fill="rgb(240,31,25)" d="M 1175.24 435.576 L 1178.15 435.103 L 1178.99 436.311 C 1173.91 448.74 1162.34 459.009 1159.35 465.575 L 1157.89 465.909 C 1147.47 464.287 1137 462.568 1126.53 461.381 C 1114.61 460.252 1102.69 459.024 1090.79 457.698 C 1089.56 454.665 1089.72 456.007 1090.95 452.119 C 1106.75 450.737 1141.44 442.634 1159.18 439.345 C 1165.69 437.334 1168.41 436.618 1175.24 435.576 z" data-c-fill="f01f19"/><path fill="#ad0e07" d="M 1175.24 435.576 L 1178.15 435.103 L 1178.99 436.311 C 1173.91 448.74 1162.34 459.009 1159.35 465.575 L 1157.89 465.909 C 1147.47 464.287 1137 462.568 1126.53 461.381 C 1139.53 461.937 1149.69 453.617 1161.5 446.813 C 1161.97 442.346 1162.06 442.452 1159.18 439.345 C 1165.69 437.334 1168.41 436.618 1175.24 435.576 z" data-c-fill="a61009" fill-opacity="1"/><path fill="rgb(215,62,15)" d="M 1159.18 439.345 C 1165.69 437.334 1168.41 436.618 1175.24 435.576 C 1172.31 439.865 1166.06 444.367 1161.5 446.813 C 1161.97 442.346 1162.06 442.452 1159.18 439.345 z" data-c-fill="d73e0f"/><path fill="#ad0e07" d="M 1030.29 558.031 L 1031.71 557.512 C 1040.77 569.792 1066.98 599.476 1072.77 610.261 C 1055.47 609.895 1028.9 601.182 1010.15 601.021 C 1013.3 591.175 1026.44 570.503 1030.29 558.031 z" data-c-fill="a61009" fill-opacity="1"/><path fill="#202b42" d="M 1010.15 601.021 C 1028.9 601.182 1055.47 609.895 1072.77 610.261 C 1081.58 617.568 1089.16 630.901 1096.67 639.476 C 1087.48 650.58 1072.9 665.771 1065.32 676.203 C 1067.15 678.009 1072.84 683.313 1074.23 684.989 C 1081.82 691.245 1116.56 719.538 1118.45 726.524 C 1113.07 736.821 1105.27 742.775 1097.2 750.859 C 1075.15 772.929 1056.53 799.961 1033.04 820.339 C 1023.03 821.215 931.147 822.28 929.465 819.247 C 931.924 815.816 965.326 789.859 970.137 786.96 C 977.211 788.757 985.992 791.747 993.094 793.953 C 1007.87 780.598 1017.97 768.265 1030.75 753.388 C 1036.87 746.264 1044.39 739.618 1050.91 732.304 C 1028.65 717.154 992.28 696.811 968.492 682.691 C 971.272 665.877 981.88 628.581 982.053 613.473 C 985.461 610.992 1003.66 603.704 1009.26 601.122 L 1010.15 601.021 z" data-c-fill="2a2042" fill-opacity="1"/><path fill="#ad0e07" d="M 1074.23 684.989 C 1081.82 691.245 1116.56 719.538 1118.45 726.524 C 1112.92 725.799 1099.48 726.872 1093.32 727.211 C 1088.92 715.978 1071.03 694.388 1074.23 684.989 z" data-c-fill="a61009" fill-opacity="1"/><path fill="rgb(55,92,136)" d="M 662.277 170.037 C 703.402 154.936 707.503 146.033 737.595 115.731 C 745.546 107.724 751.941 100.705 761.679 94.9088 C 746.261 116.708 729.89 154.218 714.743 178.084 C 704.952 186.874 681.208 196.279 669.071 208.892 L 669.069 209.906 L 670.076 210.579 C 665.255 214.321 662.267 212.083 656.3 218.83 L 655.917 220.647 C 664.055 223.611 680.167 228.931 687.432 232.362 L 695.14 232.869 C 672.805 240.038 650.059 245.802 627.403 251.92 L 626.067 253.058 C 623.932 252.977 620.922 252.542 619.21 253.354 L 620.335 254.543 C 612.794 265.997 594.512 280.323 584.694 293.963 L 575.275 301.767 C 566.736 305.658 546.497 303.29 535.812 305.809 C 528.524 307.528 525.843 311.552 521.095 311.672 C 520.168 311.021 518.95 310.225 518.105 309.517 C 515.114 312.833 510.876 317.247 508.182 320.635 L 507.388 320.644 C 503.638 315.956 491.406 321.695 480.977 316.775 C 485.07 313.362 488.309 307.891 494.225 302.846 C 499.885 295.512 504.281 291.173 510.905 284.595 C 512.152 279.642 513.076 263.094 514.685 260.28 C 518.864 252.97 538.837 234.081 545.107 228.786 C 561.485 211.2 574.808 197.099 593.076 181.506 C 602.778 166.763 628.37 161.464 642.938 150.888 C 650.24 145.587 655.437 136.031 662.648 130.194 L 663.34 129.643 C 668.715 122.735 671.537 119.395 677.8 113.322 C 682.28 106.806 684.991 104.007 691.257 98.9224 C 686.348 110.088 663.261 161.671 662.277 170.037 z" data-c-fill="375c88"/><path fill="#fad064" d="M 662.277 170.037 C 703.402 154.936 707.503 146.033 737.595 115.731 C 745.546 107.724 751.941 100.705 761.679 94.9088 C 746.261 116.708 729.89 154.218 714.743 178.084 C 704.952 186.874 681.208 196.279 669.071 208.892 L 669.069 209.906 L 670.076 210.579 C 665.255 214.321 662.267 212.083 656.3 218.83 L 655.917 220.647 C 651.747 221.002 629.725 245.109 627.526 249.16 L 626.087 249.22 C 621.337 245.925 617.691 231.742 616.383 225.826 L 617.427 224.687 C 618.729 217.751 627.109 196.282 629.875 188.77 C 630.642 181.359 655.284 173.168 662.277 170.037 z" data-c-fill="f2b007" fill-opacity="1"/><path fill="#f01f19" d="M705.694 167.771C708.776 171.515 711.412 174.563 714.743 178.084 704.952 186.874 681.208 196.279 669.071 208.892L669.069 209.906 670.076 210.579C665.255 214.321 662.267 212.083 656.3 218.83L655.917 220.647C651.747 221.002 629.725 245.109 627.526 249.16L626.087 249.22C621.337 245.925 617.691 231.742 616.383 225.826L617.427 224.687C628.669 216.979 637.024 206.538 646.039 199.514 659.271 189.205 689.928 173.726 705.694 167.771zM677.8 113.322C682.28 106.806 684.991 104.007 691.257 98.9224 686.348 110.088 663.261 161.671 662.277 170.037 655.284 173.168 630.642 181.359 629.875 188.77 619.431 187.245 591.895 219.024 582.439 219.737L581.577 218.161 582.559 214.858C585.536 203.504 590.468 193.096 593.076 181.506 602.778 166.763 628.37 161.464 642.938 150.888 650.24 145.587 655.437 136.031 662.648 130.194L663.34 129.643C668.715 122.735 671.537 119.395 677.8 113.322z" data-c-fill="c01809" fill-opacity="1"/><path fill="#fad064" d="M 663.34 129.643 C 666.775 130.572 667.631 128.993 669.295 126.146 C 669.719 127.196 669.279 128.978 669.115 130.279 L 668.09 129.778 L 668.598 130.223 L 668.603 132.285 C 659.257 149.766 652.318 161.6 633.335 170.292 C 612.547 179.811 598.758 199.241 582.559 214.858 C 585.536 203.504 590.468 193.096 593.076 181.506 C 602.778 166.763 628.37 161.464 642.938 150.888 C 650.24 145.587 655.437 136.031 662.648 130.194 L 663.34 129.643 z" data-c-fill="e8950a" fill-opacity="1"/><path fill="rgb(210,114,17)" d="M 677.8 113.322 C 679.53 119.228 672.162 127.133 668.603 132.285 L 668.598 130.223 L 668.09 129.778 L 669.115 130.279 C 669.279 128.978 669.719 127.196 669.295 126.146 C 667.631 128.993 666.775 130.572 663.34 129.643 C 668.715 122.735 671.537 119.395 677.8 113.322 z" data-c-fill="d27211"/><path fill="url(#d)" d="M 619.21 253.354 L 620.335 254.543 C 612.794 265.997 594.512 280.323 584.694 293.963 L 575.275 301.767 C 566.736 305.658 546.497 303.29 535.812 305.809 C 528.524 307.528 525.843 311.552 521.095 311.672 C 520.168 311.021 518.95 310.225 518.105 309.517 L 520.083 307.766 L 521.999 308.351 C 529.705 303.849 542.183 296.884 548.536 291.284 C 551.563 284.264 553.748 279.203 557.512 272.552 C 560.639 271.074 565.818 269.248 569.191 267.944 L 578.606 264.54 C 585.039 259.297 610.105 255.137 619.21 253.354 z"/><path fill="#fad064" d="M 578.606 264.54 C 578.087 271.017 574.949 277.907 572.259 283.829 C 567.109 285.73 553.732 290.87 548.536 291.284 C 551.563 284.264 553.748 279.203 557.512 272.552 C 560.639 271.074 565.818 269.248 569.191 267.944 L 578.606 264.54 z" data-c-fill="f2b007" fill-opacity="1"/><path fill="#202b42" d="M 655.917 220.647 C 664.055 223.611 680.167 228.931 687.432 232.362 L 695.14 232.869 C 672.805 240.038 650.059 245.802 627.403 251.92 L 626.067 253.058 C 623.932 252.977 620.922 252.542 619.21 253.354 C 610.105 255.137 585.039 259.297 578.606 264.54 L 569.191 267.944 C 564.368 267.567 561.332 267.06 556.565 266.142 C 568.525 256.528 582.472 248.387 595.335 239.857 C 601.915 235.492 609.887 229.58 616.383 225.826 C 617.691 231.742 621.337 245.925 626.087 249.22 L 627.526 249.16 C 629.725 245.109 651.747 221.002 655.917 220.647 z" data-c-fill="2a2042" fill-opacity="1"/><path fill="rgb(60,108,155)" d="M 545.107 228.786 C 548.997 227.723 549.699 227.222 552.404 224.295 C 552.074 227.568 533.318 253.023 529.862 257.033 C 518.258 270.5 519.606 286.472 505.476 297.914 C 502.222 300.513 498.855 302.967 495.384 305.269 C 494.705 304.104 494.591 304.123 494.225 302.846 C 499.885 295.512 504.281 291.173 510.905 284.595 C 512.152 279.642 513.076 263.094 514.685 260.28 C 518.864 252.97 538.837 234.081 545.107 228.786 z" data-c-fill="3c6c9b"/><path fill="url(#e)" d="M 556.565 266.142 C 561.332 267.06 564.368 267.567 569.191 267.944 C 565.818 269.248 560.639 271.074 557.512 272.552 C 553.748 279.203 551.563 284.264 548.536 291.284 C 542.183 296.884 529.705 303.849 521.999 308.351 L 520.083 307.766 C 533.576 294.151 544.126 278.462 556.565 266.142 z"/><path fill="rgb(60,108,155)" d="M580.031 223.03C578.182 234.684 563.053 245.197 553.103 250.118 542.529 255.348 540.94 273.982 538.279 285.185L536.59 285.577C535.494 279.653 535.189 267.826 534.038 259.955 537.988 254.552 572.277 229.086 580.031 223.03zM1280.01 518.478C1281.75 519.922 1285.05 522.505 1286.49 524.035 1290.64 526.624 1294.73 529.299 1299.13 531.431L1302.59 529.64C1311.04 533.466 1317.21 535.354 1326.21 537.795 1347.11 542.397 1366.41 549.625 1387.2 554.622 1382.85 557.648 1365.93 568.169 1363.84 570.837L1369.6 573.494C1398.01 577.878 1416.49 578.691 1444.72 586.099 1438.14 590.898 1435.75 593.115 1431.1 599.8 1425.81 602.156 1425.43 604.345 1421.67 607.364 1419.96 614.148 1416.45 638.48 1414.5 642.131L1416.06 643.506C1413.39 649.789 1408.23 667.697 1406.62 674.405L1403.18 673.543C1394.37 673.126 1382.1 666.638 1373.61 662.781 1361.16 660.762 1293.6 632.552 1278.71 626.434 1256.6 619.089 1227.13 612.747 1203.95 606.935 1211.86 600.662 1266.56 598.683 1282.18 591.955L1283.27 592.108C1281.88 589.785 1281.9 589.623 1281.45 586.911 1284.39 580.848 1280.66 527.633 1280.01 518.478z" data-c-fill="3c6c9b"/><path fill="#202b42" d="M 1320.75 586.608 C 1341.02 597.127 1360.17 609.703 1379.79 621.311 C 1388.49 626.457 1399.9 636.649 1409.71 636.542 L 1414.5 642.131 L 1416.06 643.506 C 1413.39 649.789 1408.23 667.697 1406.62 674.405 L 1403.18 673.543 C 1394.37 673.126 1382.1 666.638 1373.61 662.781 C 1361.16 660.762 1293.6 632.552 1278.71 626.434 C 1256.6 619.089 1227.13 612.747 1203.95 606.935 C 1211.86 600.662 1266.56 598.683 1282.18 591.955 L 1283.27 592.108 C 1287.48 593.007 1309.39 587.054 1320.75 586.608 z" data-c-fill="2a2042" fill-opacity="1"/><path fill="rgb(240,31,25)" d="M 1283.27 592.108 C 1293.4 598.749 1334.48 624.788 1340.65 630.656 C 1355.13 637.828 1365.4 646.068 1378.27 655.637 C 1379.17 658.73 1380.01 659.423 1378.9 661.795 C 1377.05 662.202 1375.48 662.491 1373.61 662.781 C 1361.16 660.762 1293.6 632.552 1278.71 626.434 C 1256.6 619.089 1227.13 612.747 1203.95 606.935 C 1211.86 600.662 1266.56 598.683 1282.18 591.955 L 1283.27 592.108 z" data-c-fill="f01f19"/><path fill="#fad064" d="M 1278.71 626.434 C 1298.12 624.437 1332.47 633.184 1340.65 630.656 C 1355.13 637.828 1365.4 646.068 1378.27 655.637 C 1379.17 658.73 1380.01 659.423 1378.9 661.795 C 1377.05 662.202 1375.48 662.491 1373.61 662.781 C 1361.16 660.762 1293.6 632.552 1278.71 626.434 z" data-c-fill="f2b007" fill-opacity="1"/><path fill="#fad064" d="M 1378.27 655.637 C 1385.08 660.229 1397.64 668.305 1403.18 673.543 C 1394.37 673.126 1382.1 666.638 1373.61 662.781 C 1375.48 662.491 1377.05 662.202 1378.9 661.795 C 1380.01 659.423 1379.17 658.73 1378.27 655.637 z" data-c-fill="e8950a" fill-opacity="1"/><path fill="rgb(30,50,76)" d="M 1280.01 518.478 C 1281.75 519.922 1285.05 522.505 1286.49 524.035 C 1299.21 545.531 1309.49 562.998 1321.56 585.175 C 1334.36 581.099 1347.38 575.982 1359.99 571.246 C 1362.93 576.02 1366.64 578.895 1369.52 583.259 C 1380.73 600.251 1399.23 620.075 1409.71 636.542 C 1399.9 636.649 1388.49 626.457 1379.79 621.311 C 1360.17 609.703 1341.02 597.127 1320.75 586.608 C 1309.39 587.054 1287.48 593.007 1283.27 592.108 C 1281.88 589.785 1281.9 589.623 1281.45 586.911 C 1284.39 580.848 1280.66 527.633 1280.01 518.478 z" data-c-fill="1e324c"/><path fill="rgb(240,31,25)" d="M1369.6 573.494C1398.01 577.878 1416.49 578.691 1444.72 586.099 1438.14 590.898 1435.75 593.115 1431.1 599.8 1425.81 602.156 1425.43 604.345 1421.67 607.364 1416.11 603.845 1409.44 599.768 1403.98 596.285 1395.38 590.797 1373.53 581.93 1369.6 573.494zM1326.21 537.795C1347.11 542.397 1366.41 549.625 1387.2 554.622 1382.85 557.648 1365.93 568.169 1363.84 570.837L1361.45 571.35C1357.27 570.321 1325.99 549.728 1319.93 545.887L1319.01 539.667 1320.12 538.282 1326.21 537.795z" data-c-fill="f01f19"/><path fill="#f01f19" d="M 1299.13 531.431 L 1302.59 529.64 C 1311.04 533.466 1317.21 535.354 1326.21 537.795 L 1320.12 538.282 L 1319.01 539.667 L 1319.93 545.887 C 1312.54 541.761 1305.58 536.919 1299.13 531.431 z" data-c-fill="c01809" fill-opacity="1"/><path fill="#202b42" d="M 797.992 608.346 C 811.777 615.95 872.303 658.061 880.494 658.852 L 879.773 661.101 L 877.63 665.128 C 851.78 704.52 823.019 743.934 796.812 783.321 C 789.633 794.11 774.797 818.84 766.663 826.668 C 761.205 826.92 745.529 827.571 740.427 826.265 C 731.561 827.549 719.299 827.404 711.818 829.194 C 706.872 831.082 696.457 836.571 692.419 833.133 C 692.125 829.916 693.787 827.821 695.449 825.061 C 700.565 821.702 705.946 815.498 709.514 810.584 C 707.459 809.188 704.851 805.141 703.263 802.962 L 702.299 802.899 C 700.702 800.699 694.479 794.441 692.314 792.157 C 705.707 789.547 714.817 789.797 729.206 786.323 C 736.124 783.465 739.552 780.969 743.312 774.631 C 756.417 743.755 770.273 713.252 783.513 682.436 C 785.63 677.51 786.748 674.634 787.781 669.235 L 788.73 663.399 L 788.303 662.657 L 788.495 659.779 C 788.675 659.779 788.856 659.794 789.036 659.779 C 797.941 658.999 791.867 615.25 797.992 608.346 z" data-c-fill="2a2042" fill-opacity="1"/><path fill="#202b42" d="M 797.992 608.346 C 811.777 615.95 872.303 658.061 880.494 658.852 L 879.773 661.101 L 877.63 665.128 C 863.663 667.576 817.835 701.135 802.299 709.89 C 799.817 699.999 794.304 673.193 791.588 665.563 L 790.75 665.419 L 787.781 669.235 L 788.73 663.399 L 788.303 662.657 L 788.495 659.779 C 788.675 659.779 788.856 659.794 789.036 659.779 C 797.941 658.999 791.867 615.25 797.992 608.346 z" data-c-fill="2a2042" fill-opacity="1"/><path fill="rgb(51,72,113)" d="M 788.73 663.399 C 791.593 662.561 877.308 660.563 879.773 661.101 L 877.63 665.128 C 863.663 667.576 817.835 701.135 802.299 709.89 C 799.817 699.999 794.304 673.193 791.588 665.563 L 790.75 665.419 L 787.781 669.235 L 788.73 663.399 z" data-c-fill="334871"/><path fill="rgb(60,108,155)" d="M 787.781 669.235 L 790.75 665.419 L 791.588 665.563 C 794.304 673.193 799.817 699.999 802.299 709.89 L 799.311 712.988 C 801.268 719.047 798.871 757.022 793.817 760.188 C 785.836 760.057 751.898 781.126 746.421 779.321 C 746.167 776.243 746.14 777.331 747.687 774.248 L 743.312 774.631 C 756.417 743.755 770.273 713.252 783.513 682.436 C 785.63 677.51 786.748 674.634 787.781 669.235 z" data-c-fill="3c6c9b"/><path fill="rgb(30,50,76)" d="M 747.687 774.248 C 764.255 755.999 783.396 732.068 799.311 712.988 C 801.268 719.047 798.871 757.022 793.817 760.188 C 785.836 760.057 751.898 781.126 746.421 779.321 C 746.167 776.243 746.14 777.331 747.687 774.248 z" data-c-fill="1e324c"/><path fill="rgb(51,72,113)" d="M 747.687 774.248 C 746.14 777.331 746.167 776.243 746.421 779.321 C 751.898 781.126 785.836 760.057 793.817 760.188 C 777.944 776.692 761.249 795.695 746.086 813.03 C 739.208 810.896 725.477 806.399 718.408 805.546 L 715.5 804.041 C 713.66 805.938 710.985 808.493 709.514 810.584 C 707.459 809.188 704.851 805.141 703.263 802.962 L 702.299 802.899 C 700.702 800.699 694.479 794.441 692.314 792.157 C 705.707 789.547 714.817 789.797 729.206 786.323 C 736.124 783.465 739.552 780.969 743.312 774.631 L 747.687 774.248 z" data-c-fill="334871"/><path fill="rgb(55,92,136)" d="M 692.314 792.157 C 705.707 789.547 714.817 789.797 729.206 786.323 C 728.382 793.296 720.131 796.737 714.374 802.596 L 703.263 802.962 L 702.299 802.899 C 700.702 800.699 694.479 794.441 692.314 792.157 z" data-c-fill="375c88"/><path fill="rgb(210,114,17)" d="M 709.514 810.584 C 710.985 808.493 713.66 805.938 715.5 804.041 C 717.258 813.966 714.718 819.61 711.818 829.194 C 706.872 831.082 696.457 836.571 692.419 833.133 C 692.125 829.916 693.787 827.821 695.449 825.061 C 700.565 821.702 705.946 815.498 709.514 810.584 z" data-c-fill="d27211"/><path fill="rgb(215,62,15)" d="M 715.5 804.041 L 718.408 805.546 L 740.427 826.265 C 731.561 827.549 719.299 827.404 711.818 829.194 C 714.718 819.61 717.258 813.966 715.5 804.041 z" data-c-fill="d73e0f"/><path fill="#202b42" d="M 1202.3 633.982 C 1216.48 643.768 1245.17 660.614 1256.38 669.408 L 1257.21 669.849 C 1269.15 671.171 1281.86 670.885 1293.92 670.885 C 1299.4 674.625 1333.28 751.339 1341.22 762.51 C 1342.01 763.621 1348.13 775.282 1348.83 776.999 C 1352.81 786.864 1351.88 791.93 1348.05 801.947 C 1346.75 805.327 1340.07 818.415 1339.91 820.718 C 1336.6 823.797 1314.3 835.377 1310.37 834.762 C 1309.96 831.454 1310.88 828.342 1311.6 825.087 C 1310.75 821.887 1310.62 820.368 1308.08 818.126 C 1307.74 816.338 1308.12 811.377 1308.21 809.289 C 1304.16 804.517 1299.75 798.702 1295.8 793.739 C 1292.94 797.744 1285.02 808.384 1283.08 812.19 L 1283.89 808.289 C 1282.8 805.523 1281.64 805.511 1278.71 803.58 C 1278.61 802.87 1278.51 802.16 1278.41 801.451 C 1283.77 794.717 1289.25 787.362 1293.09 780.17 C 1286.71 762.282 1272.88 742.535 1266.46 723.253 C 1251.57 719.918 1236.59 716.475 1221.46 714.496 C 1196.36 711.213 1171.94 705.986 1146.81 702.635 C 1147.26 699.363 1173.34 669.712 1177.34 665.799 C 1182.85 659.005 1197.9 638.411 1202.3 633.982 z" data-c-fill="2a2042" fill-opacity="1"/><path fill="rgb(51,72,113)" d="M 1202.3 633.982 C 1216.48 643.768 1245.17 660.614 1256.38 669.408 C 1253.31 672.981 1220.96 679.471 1214.76 680.4 C 1206.79 677.238 1183.89 666.485 1177.34 665.799 C 1182.85 659.005 1197.9 638.411 1202.3 633.982 z" data-c-fill="334871"/><path fill="#ad0e07" d="M 1293.92 670.885 C 1299.4 674.625 1333.28 751.339 1341.22 762.51 C 1342.01 763.621 1348.13 775.282 1348.83 776.999 L 1345.53 776.81 C 1341.76 774.388 1289.18 715.896 1284.65 709.147 C 1287.51 701.881 1293.19 678.583 1293.92 670.885 z" data-c-fill="a61009" fill-opacity="1"/><path fill="#fad064" d="M 1257.21 669.849 C 1269.15 671.171 1281.86 670.885 1293.92 670.885 C 1293.19 678.583 1287.51 701.881 1284.65 709.147 C 1275.89 695.872 1265.76 683.077 1257.21 669.849 z" data-c-fill="f2b007" fill-opacity="1"/><path fill="rgb(240,31,25)" d="M 1323.57 798.507 C 1329.22 805.492 1334.65 813.375 1339.91 820.718 C 1336.6 823.797 1314.3 835.377 1310.37 834.762 C 1309.96 831.454 1310.88 828.342 1311.6 825.087 C 1316.04 818.316 1320.41 806.393 1323.57 798.507 z" data-c-fill="f01f19"/><path fill="rgb(51,72,113)" d="M 1302.28 777.506 C 1308.86 777.859 1311.05 777.641 1317.53 776.725 C 1315.82 784.272 1311.67 802.964 1308.21 809.289 C 1304.16 804.517 1299.75 798.702 1295.8 793.739 C 1297.89 788.299 1300.05 782.887 1302.28 777.506 z" data-c-fill="334871"/><path fill="#202b42" d="M 1548.96 477.213 C 1556.3 484.364 1584.92 523.165 1585.16 531.548 C 1584.57 554.856 1582.65 581.253 1577.41 603.838 C 1576.5 607.76 1553.67 627.722 1548.71 632.009 C 1537.04 642.084 1521.93 662.299 1506.99 665.089 C 1496.95 666.537 1487.69 666.919 1477.77 668.172 C 1459.06 670.536 1425.23 675.682 1406.62 674.405 C 1408.23 667.697 1413.39 649.789 1416.06 643.506 L 1414.5 642.131 C 1416.45 638.48 1419.96 614.148 1421.67 607.364 C 1425.43 604.345 1425.81 602.156 1431.1 599.8 L 1432.51 606.023 C 1454.64 600.427 1480.85 595.657 1503.67 590.183 C 1502.55 595.968 1501.83 601.203 1499.22 606.518 C 1512.15 600.235 1525.13 594.719 1537.39 587.284 C 1539.73 582.328 1542.36 573.648 1544.21 568.06 C 1547.15 559.133 1554.71 545.734 1553.82 536.815 C 1557.19 530.006 1552.74 510.585 1551.03 502.795 C 1550.17 494.282 1549.48 485.753 1548.96 477.213 z" data-c-fill="2a2042" fill-opacity="1"/><path fill="rgb(30,50,76)" d="M 1432.51 606.023 C 1454.64 600.427 1480.85 595.657 1503.67 590.183 C 1502.55 595.968 1501.83 601.203 1499.22 606.518 C 1496.45 608.836 1494.9 610.61 1492.5 613.281 C 1495.85 618.57 1504.57 629.772 1506.51 633.694 C 1495.56 640.575 1454.19 638.193 1440.17 643.748 C 1435.74 645.506 1432.68 646.08 1427.92 645.909 C 1423.95 645.754 1419.94 644.516 1416.06 643.506 L 1414.5 642.131 C 1416.45 638.48 1419.96 614.148 1421.67 607.364 C 1425.43 604.345 1425.81 602.156 1431.1 599.8 L 1432.51 606.023 z" data-c-fill="1e324c"/><path fill="rgb(240,31,25)" d="M 1432.51 606.023 C 1454.64 600.427 1480.85 595.657 1503.67 590.183 C 1502.55 595.968 1501.83 601.203 1499.22 606.518 C 1496.45 608.836 1494.9 610.61 1492.5 613.281 C 1483.14 612.772 1436.76 611.258 1432.51 606.023 z" data-c-fill="f01f19"/><path fill="rgb(51,72,113)" d="M 1548.96 477.213 C 1556.3 484.364 1584.92 523.165 1585.16 531.548 C 1574.04 542.573 1560.66 575.875 1550.75 586.265 C 1548.29 584.936 1540.73 586.777 1537.39 587.284 C 1539.73 582.328 1542.36 573.648 1544.21 568.06 C 1547.15 559.133 1554.71 545.734 1553.82 536.815 C 1557.19 530.006 1552.74 510.585 1551.03 502.795 C 1550.17 494.282 1549.48 485.753 1548.96 477.213 z" data-c-fill="334871"/><path fill="#ad0e07" d="M 1416.06 643.506 C 1419.94 644.516 1423.95 645.754 1427.92 645.909 C 1439.91 648.743 1499.35 660.905 1506.99 665.089 C 1496.95 666.537 1487.69 666.919 1477.77 668.172 C 1459.06 670.536 1425.23 675.682 1406.62 674.405 C 1408.23 667.697 1413.39 649.789 1416.06 643.506 z" data-c-fill="a61009" fill-opacity="1"/><path fill="rgb(60,108,155)" d="M 1537.39 587.284 C 1540.73 586.777 1548.29 584.936 1550.75 586.265 C 1544.54 593.811 1513.85 634.604 1510.36 636.397 C 1508.87 635.478 1507.81 634.914 1506.51 633.694 C 1504.57 629.772 1495.85 618.57 1492.5 613.281 C 1494.9 610.61 1496.45 608.836 1499.22 606.518 C 1512.15 600.235 1525.13 594.719 1537.39 587.284 z" data-c-fill="3c6c9b"/><path fill="#202b42" d="M 680.363 616.069 C 695.769 624.212 711.121 632.458 726.417 640.806 C 732.406 644.125 746.158 652.398 751.874 654.83 C 754.808 656.35 757.587 657.863 760.651 659.113 C 760.382 663.11 760.138 666.879 759.648 670.857 C 730.949 676.303 701.344 677.765 672.553 683.537 C 663.216 685.409 652.797 685.799 643.751 688.794 C 639.611 699.534 639.091 715.425 635.698 723.408 L 634.147 723.569 C 629.442 730.186 626.756 734.046 622.992 741.191 L 620.256 744.075 C 624.585 751.7 628.848 759.362 633.044 767.061 C 621.432 761.902 612.742 756.594 600.286 751.945 C 597.528 745.827 587.119 723.734 586.968 717.85 L 586.99 717.215 C 587.117 711.137 599.982 680.324 603.367 673.735 C 603.64 670.903 607.334 665.804 609.037 663.555 C 613.737 658.797 653.94 633.95 660.9 630.574 C 667.175 625.506 675.055 621.972 680.363 616.069 z" data-c-fill="2a2042" fill-opacity="1"/><path fill="rgb(30,50,76)" d="M 603.367 673.735 C 606.874 677.19 606.825 694.389 605.527 699.078 C 608.621 704.444 605.59 709.745 607.889 713.724 C 615.588 717.71 629.974 720.538 634.147 723.569 C 629.442 730.186 626.756 734.046 622.992 741.191 L 620.256 744.075 C 624.585 751.7 628.848 759.362 633.044 767.061 C 621.432 761.902 612.742 756.594 600.286 751.945 C 597.528 745.827 587.119 723.734 586.968 717.85 L 586.99 717.215 C 587.117 711.137 599.982 680.324 603.367 673.735 z" data-c-fill="1e324c"/><path fill="#ad0e07" d="M 586.968 717.85 C 604.844 717.631 612.594 740.434 620.256 744.075 C 624.585 751.7 628.848 759.362 633.044 767.061 C 621.432 761.902 612.742 756.594 600.286 751.945 C 597.528 745.827 587.119 723.734 586.968 717.85 z" data-c-fill="a61009" fill-opacity="1"/><path fill="rgb(60,108,155)" d="M603.367 673.735C606.874 677.19 606.825 694.389 605.527 699.078 601.545 703.962 592.898 716.137 586.99 717.215 587.117 711.137 599.982 680.324 603.367 673.735zM660.9 630.574C673.58 636.377 685.63 642.627 698.029 648.993 680.565 653.717 653.345 659.896 635.597 662.908 628.846 662.94 613.554 666.838 609.037 663.555 613.737 658.797 653.94 633.95 660.9 630.574z" data-c-fill="3c6c9b"/><path fill="rgb(51,72,113)" d="M 609.037 663.555 C 613.554 666.838 628.846 662.94 635.597 662.908 C 629.788 675.878 616.461 703.14 607.889 713.724 C 605.59 709.745 608.621 704.444 605.527 699.078 C 606.825 694.389 606.874 677.19 603.367 673.735 C 603.64 670.903 607.334 665.804 609.037 663.555 z" data-c-fill="334871"/><path fill="#202b42" d="M 575.275 301.767 L 578.943 303.516 C 577.373 304.037 574.509 304.878 573.156 305.589 C 585.508 311.383 606.56 324.666 618.547 327.522 L 617.647 329.596 C 622.867 331.866 633.266 340.921 637.428 345.136 C 637.35 345.674 637.33 346.424 637.075 346.795 C 613.685 347.486 584.914 350.334 561.935 355.488 C 554.129 357.847 546.797 360.746 539.176 363.437 C 523.188 369.082 527.28 382.625 528.513 396.232 C 521.963 393.223 486.689 376.263 482.162 375.831 L 476.068 374.245 C 467.573 363.006 462.636 341.538 464.83 327.701 C 465.684 316.412 471.268 318.879 480.977 316.775 C 491.406 321.695 503.638 315.956 507.388 320.644 L 508.182 320.635 C 510.876 317.247 515.114 312.833 518.105 309.517 C 518.95 310.225 520.168 311.021 521.095 311.672 C 525.843 311.552 528.524 307.528 535.812 305.809 C 546.497 303.29 566.736 305.658 575.275 301.767 z" data-c-fill="2a2042" fill-opacity="1"/><path fill="rgb(55,92,136)" d="M 464.83 327.701 C 465.684 316.412 471.268 318.879 480.977 316.775 C 491.406 321.695 503.638 315.956 507.388 320.644 L 508.182 320.635 C 510.177 330.046 507.296 340.847 512.41 348.173 C 504.89 350.574 502.506 352.801 496.969 358.502 C 492.798 362.651 484.003 370.558 482.162 375.831 L 476.068 374.245 C 467.573 363.006 462.636 341.538 464.83 327.701 z" data-c-fill="375c88"/><path fill="rgb(51,72,113)" d="M 507.388 320.644 L 508.182 320.635 C 510.177 330.046 507.296 340.847 512.41 348.173 C 504.89 350.574 502.506 352.801 496.969 358.502 C 492.798 362.651 484.003 370.558 482.162 375.831 L 476.068 374.245 C 478.445 367.112 478.997 357.951 481.496 350.293 C 483.965 337.793 485.151 335.909 495 328.315 L 499.146 324.547 L 507.388 320.644 z" data-c-fill="334871"/><path fill="#202b42" d="M 495 328.315 L 497.486 329.479 C 500.093 337.026 488.475 346.164 483.335 351.216 C 481.753 350.86 482.231 351.302 481.496 350.293 C 483.965 337.793 485.151 335.909 495 328.315 z" data-c-fill="2a2042" fill-opacity="1"/><path fill="rgb(60,108,155)" d="M 464.83 327.701 C 465.684 316.412 471.268 318.879 480.977 316.775 C 491.406 321.695 503.638 315.956 507.388 320.644 L 499.146 324.547 L 498.689 324.633 C 490.273 326.276 474.495 332.737 465.91 335.981 C 465.16 332.456 464.998 331.362 464.83 327.701 z" data-c-fill="3c6c9b"/><path fill="rgb(30,50,76)" d="M 575.275 301.767 L 578.943 303.516 C 577.373 304.037 574.509 304.878 573.156 305.589 C 571.771 305.433 570.454 304.964 569.8 305.828 C 562.672 315.237 561.082 326.788 550.449 333.281 C 542.401 338.195 513.615 341.564 513.604 351.174 C 513.58 351.755 513.556 352.335 513.532 352.915 L 512.41 348.173 C 507.296 340.847 510.177 330.046 508.182 320.635 C 510.876 317.247 515.114 312.833 518.105 309.517 C 518.95 310.225 520.168 311.021 521.095 311.672 C 525.843 311.552 528.524 307.528 535.812 305.809 C 546.497 303.29 566.736 305.658 575.275 301.767 z" data-c-fill="1e324c"/><path fill="rgb(240,31,25)" d="M 617.647 329.596 C 622.867 331.866 633.266 340.921 637.428 345.136 C 637.35 345.674 637.33 346.424 637.075 346.795 C 613.685 347.486 584.914 350.334 561.935 355.488 L 561.565 353.857 C 566.268 349.015 607.402 335.077 617.647 329.596 z" data-c-fill="f01f19"/><path fill="rgb(55,92,136)" d="M 496.969 358.502 C 502.506 352.801 504.89 350.574 512.41 348.173 L 513.532 352.915 L 516.17 367.326 C 510.008 364.48 503.153 361.12 496.969 358.502 z" data-c-fill="375c88"/><path fill="#fad064" d="M 961.416 571.982 L 963.899 572.039 C 969.787 580.169 999.269 592.764 1009.26 601.122 C 1003.66 603.704 985.461 610.992 982.053 613.473 C 971.461 617.099 946.87 625.566 938.265 632.511 C 936.661 634.677 936.183 635.642 933.971 637.083 C 915.762 646.858 897.076 647.914 882.951 656.165 L 880.257 656.051 L 878.969 651.644 C 880.072 635.076 881.615 618.206 882.978 601.639 L 882.686 600.44 C 886.273 598.606 899.208 594.103 903.378 592.576 C 922.394 585.784 941.469 579.158 960.6 572.697 L 961.416 571.982 z" data-c-fill="e8950a" fill-opacity="1"/><path fill="rgb(215,62,15)" d="M 961.416 571.982 L 963.899 572.039 C 969.787 580.169 999.269 592.764 1009.26 601.122 C 1003.66 603.704 985.461 610.992 982.053 613.473 C 971.461 617.099 946.87 625.566 938.265 632.511 C 939.209 625.695 954 590.85 957.644 581.02 C 959.678 577.548 960.346 576.754 960.6 572.697 L 961.416 571.982 z" data-c-fill="d73e0f"/><path fill="rgb(240,31,25)" d="M 882.978 601.639 C 895.333 607.474 908.228 619.043 920.05 626.533 C 923.877 629.405 930.545 634.125 933.971 637.083 C 915.762 646.858 897.076 647.914 882.951 656.165 L 880.257 656.051 L 878.969 651.644 C 880.072 635.076 881.615 618.206 882.978 601.639 z" data-c-fill="f01f19"/><path fill="#fad064" d="M 920.05 626.533 C 922.742 622.312 925.512 618.141 928.359 614.023 C 934.414 605.314 946.438 588.919 954.499 581.586 C 955.737 581.363 956.786 581.174 957.644 581.02 C 954 590.85 939.209 625.695 938.265 632.511 C 936.661 634.677 936.183 635.642 933.971 637.083 C 930.545 634.125 923.877 629.405 920.05 626.533 z" data-c-fill="f2b007" fill-opacity="1"/><path fill="#202b42" d="M 1294.05 351.048 C 1302.3 351.743 1332.36 347.089 1342.78 345.668 C 1353.59 360.142 1364.55 376.604 1375.86 390.591 C 1389.98 408.053 1400.34 419.695 1412.05 439.446 C 1374.83 417.488 1334.69 397.814 1297.24 375.661 C 1296.92 384.009 1295.96 392.821 1292.84 400.633 C 1292.05 387.326 1293.51 365.052 1294.05 351.048 z" data-c-fill="2a2042" fill-opacity="1"/><path fill="rgb(240,31,25)" d="M 1478.48 432.902 L 1476.54 429.814 L 1477.21 428.576 C 1478.83 428.568 1481.72 428.979 1482.95 429.942 C 1499.46 442.972 1539.45 459.497 1548.96 477.213 C 1549.48 485.753 1550.17 494.282 1551.03 502.795 C 1552.74 510.585 1557.19 530.006 1553.82 536.815 C 1544.95 526.414 1528.3 516.094 1521.99 507.241 C 1506.2 485.116 1493.43 455.838 1478.48 432.902 z" data-c-fill="f01f19"/><path fill="#fad064" d="M 1478.48 432.902 L 1476.54 429.814 L 1477.21 428.576 C 1478.83 428.568 1481.72 428.979 1482.95 429.942 C 1499.46 442.972 1539.45 459.497 1548.96 477.213 C 1549.48 485.753 1550.17 494.282 1551.03 502.795 C 1534.65 487.964 1491.76 439.591 1478.48 432.902 z" data-c-fill="f2b007" fill-opacity="1"/><path fill="#f01f19" d="M 905.208 193.203 C 899.194 186.989 894.535 172.785 888.524 168.193 C 873.039 156.363 849.73 150.628 832.747 138.872 L 833.264 137.832 C 837.447 137.079 844.504 138.114 848.961 138.56 C 869.435 139.697 892.768 140.693 913.216 140.148 C 912.146 146.613 910.996 154.958 909.608 161.218 C 908.75 168.264 907.845 178.284 906.609 185.041 L 905.208 193.203 z" data-c-fill="c01809" fill-opacity="1"/><path fill="#fad064" d="M 848.961 138.56 C 869.435 139.697 892.768 140.693 913.216 140.148 C 912.146 146.613 910.996 154.958 909.608 161.218 C 895.422 148.704 864.124 145.786 844.133 139.591 L 848.961 138.56 z" data-c-fill="e8950a" fill-opacity="1"/><path fill="rgb(210,114,17)" d="M 1239.44 493 C 1251.78 493.579 1262.88 496.94 1274.68 499.045 C 1290.96 501.949 1310.87 506.514 1327.07 508.283 L 1327.67 509.96 C 1324.46 515.579 1308.44 525.032 1302.59 529.64 L 1299.13 531.431 C 1294.73 529.299 1290.64 526.624 1286.49 524.035 C 1285.05 522.505 1281.75 519.922 1280.01 518.478 L 1278.78 516.724 C 1269.87 512.143 1244.58 500.622 1239.44 493 z" data-c-fill="d27211"/><path fill="#ad0e07" d="M 1327.07 508.283 L 1327.67 509.96 C 1324.46 515.579 1308.44 525.032 1302.59 529.64 L 1299.13 531.431 C 1294.73 529.299 1290.64 526.624 1286.49 524.035 C 1285.05 522.505 1281.75 519.922 1280.01 518.478 L 1278.78 516.724 C 1283.34 515.332 1318.49 510.015 1327.07 508.283 z" data-c-fill="a61009" fill-opacity="1"/><path fill="rgb(240,31,25)" d="M 670.076 210.579 C 676.357 210.041 734.517 206.029 735.544 206.597 C 734.686 209.345 734.138 209.148 731.733 211.224 C 719.99 223.822 718.841 226.529 702.828 232.128 C 700.635 232.284 697.181 232.418 695.14 232.869 L 687.432 232.362 C 680.167 228.931 664.055 223.611 655.917 220.647 L 656.3 218.83 C 662.267 212.083 665.255 214.321 670.076 210.579 z" data-c-fill="f01f19"/><path fill="#ad0e07" d="M 687.432 232.362 C 701.214 228.066 717.159 213.788 731.733 211.224 C 719.99 223.822 718.841 226.529 702.828 232.128 C 700.635 232.284 697.181 232.418 695.14 232.869 L 687.432 232.362 z" data-c-fill="a61009" fill-opacity="1"/><path fill="rgb(240,31,25)" d="M 1295.8 793.739 C 1299.75 798.702 1304.16 804.517 1308.21 809.289 C 1308.12 811.377 1307.74 816.338 1308.08 818.126 C 1301.5 820.817 1277.15 833.666 1272.57 831.677 C 1272.21 826.557 1277.71 821.131 1281.03 817.277 C 1269.52 821.771 1254.2 824.974 1241.52 829.185 C 1248.05 821.788 1262.4 797.873 1269.47 796.376 C 1276.57 798.852 1276.76 807.757 1281.5 812.793 L 1283.08 812.19 C 1285.02 808.384 1292.94 797.744 1295.8 793.739 z" data-c-fill="f01f19"/><path fill="#fad064" d="M 692.314 792.157 C 694.479 794.441 700.702 800.699 702.299 802.899 L 703.263 802.962 C 704.851 805.141 707.459 809.188 709.514 810.584 C 705.946 815.498 700.565 821.702 695.449 825.061 C 693.303 821.746 689.621 824.617 685.562 824.53 C 678.106 824.369 663.51 824.428 657.109 821.542 C 657.313 821.161 657.516 820.781 657.72 820.4 L 658.076 819.802 C 662.403 812.435 683.602 795.278 692.314 792.157 z" data-c-fill="f2b007" fill-opacity="1"/><path fill="#ad0e07" d="M 702.299 802.899 L 703.263 802.962 C 704.851 805.141 707.459 809.188 709.514 810.584 C 705.946 815.498 700.565 821.702 695.449 825.061 C 693.303 821.746 689.621 824.617 685.562 824.53 C 678.106 824.369 663.51 824.428 657.109 821.542 C 686.012 821.37 679.572 812.813 702.299 802.899 z" data-c-fill="a61009" fill-opacity="1"/><path fill="#f01f19" d="M 635.698 723.408 C 642.453 735.333 650.241 739.509 657.773 749.376 C 640.584 751.89 634.741 755.107 622.992 741.191 C 626.756 734.046 629.442 730.186 634.147 723.569 L 635.698 723.408 z" data-c-fill="c01809" fill-opacity="1"/></svg>