<svg xmlns="http://www.w3.org/2000/svg"  viewBox="0 0 30 30" width="120px" height="120px" baseProfile="basic"><polygon fill="#ffac4f" points="20,7 11,1 8,10 4,15.5 4,24 10.5,29 19,29 25,23 25,14"/><polygon fill="#ffc170" points="11,1 8,10 13.5,13"/><polygon fill="#ff993d" points="20,7 17.5,17 13.5,13"/><polygon fill="#ffea3e" points="13.5,13 9,23 17.5,17"/><polygon fill="#ff5" points="17.5,17 15.5,25.5 9,23"/><polygon fill="#ffea3e" points="9,23 10.5,29 15.5,25.5"/><polygon fill="#ffca1e" points="15.5,25.5 19,29 10.5,29"/><polygon fill="#ffd72b" points="15.5,25.5 21,23 19,29"/><polygon fill="#ffac4f" points="20,7 25,14 17.5,17"/><polygon fill="#ff993d" points="25,14 21,23 17.5,17"/><polygon fill="#ff8930" points="21,23 25,23 25,14"/><polygon fill="#fa791b" points="19,29 25,23 21,23"/><polygon fill="#ffac4f" points="8,10 4,15.5 13.5,13"/><polygon fill="#ff993d" points="13.5,13 4,15.5 9,23"/><polygon fill="#fa791b" points="9,23 4,24 10.5,29"/><polygon fill="#ff8930" points="4,15.5 4,24 9,23"/><polygon fill="#ffea3e" points="17.5,17 21,23 15.5,25.5"/><polygon fill="#ffac4f" points="11,1 13.5,13 20,7"/></svg>