<svg xmlns="http://www.w3.org/2000/svg"  viewBox="0 0 30 30" width="240px" height="240px" baseProfile="basic"><polygon fill="#9ee36b" points="14,4 5,8 2,15 4.5,24 3,27.5 6,29 7.432,24.704 17,27 25,21.5 26.5,13 27,3"/><polygon fill="#8be751" points="4.5,24 3,27.5 7.432,24.704"/><polygon fill="#73d239" points="7.432,24.704 3,27.5 6,29"/><polygon fill="#549c2d" points="5,8 2,15 4.5,24"/><polygon fill="#8be751" points="26.5,13 27,3 16,8"/><polygon fill="#73d239" points="16.5,21 10,14 4.5,24"/><polygon fill="#78d241" points="16,8 14,4 5,8"/><polygon fill="#6bbf3a" points="27,3 14,4 16,8"/><polygon fill="#6bbf3a" points="16,8 10,14 5,8"/><polygon fill="#60ab33" points="10,14 5,8 4.5,24"/><polygon fill="#6bbf3a" points="26.5,13 25,21.5 16.5,21"/><polygon fill="#6bbf3a" points="16.5,21 17,27 4.5,24"/><polygon fill="#60ab33" points="16.5,21 17,27 25,21.5"/><polygon fill="#8be751" points="16,8 10,14 16.5,21"/><polygon fill="#78d241" points="26.5,13 16,8 16.5,21"/></svg>